<svg width="174" height="36" viewBox="0 0 174 36" fill="none" xmlns="http://www.w3.org/2000/svg">
<g id="Logotype">
<g id="Group 6069">
<g id="Group 6053">
<path id="Vector" d="M88.0885 21.8023L83.231 5.95502H58.1344L53.2769 21.8023H49.3682V27.955H77.3374L75.7367 21.8023H59.5896L62.4244 12.1077H78.9789L81.8136 21.8023L83.2776 27.955H91.9739V21.8023H88.0885Z" fill="#242730"/>
<path id="Vector_2" d="M125.406 5.95502H100.309L93.5891 27.955H99.9658L101.159 23.8687H118.371L116.768 17.6957H102.961L104.599 12.1077H121.157L122.606 17.0496L122.626 17.1165L122.795 17.6957H122.792L125.31 26.4066L125.77 27.955H132.146L125.406 5.95502Z" fill="#242730"/>
<path id="Vector_3" d="M173.282 16.9448C173.282 27.9346 168.364 27.9346 162.293 27.9346H145.028C138.957 27.9346 134.038 27.9346 134.038 16.9448C134.038 5.95502 138.957 5.95502 145.028 5.95502H162.313C168.384 5.95502 173.282 5.95502 173.282 16.9448ZM167.211 16.9652C167.211 12.128 165.046 12.128 162.374 12.128H145.028C142.356 12.128 140.191 12.128 140.191 16.9652C140.191 21.8023 142.356 21.8023 145.028 21.8023H162.374C165.046 21.8023 167.211 21.8023 167.211 16.9652Z" fill="#242730"/>
<g id="Rectangle 1633">
<rect x="153.326" y="13.8274" width="11.0213" height="6.29786" rx="1.49102" fill="#242730"/>
<rect x="153.326" y="13.8274" width="11.0213" height="6.29786" rx="1.49102" fill="url(#paint0_linear_186_832)"/>
</g>
</g>
</g>
<g id="Group 6287">
<path id="Vector_4" d="M35.082 30.765C35.082 30.765 35.082 30.695 35.062 30.655L33.952 26.195C33.002 22.385 31.572 18.715 29.692 15.285C27.492 11.275 24.692 7.62502 21.392 4.43502L17.942 1.10502C17.732 0.905017 17.402 0.905017 17.192 1.10502L13.702 4.35502C13.702 4.35502 13.682 4.37502 13.682 4.38502C10.432 7.41502 7.67197 10.905 5.49197 14.775C3.56197 18.205 2.11197 21.875 1.17197 25.705C1.16197 25.735 1.14197 25.775 1.14197 25.815C1.14197 25.855 1.13197 25.885 1.12197 25.915C1.09197 26.045 1.05197 26.175 1.02197 26.315L0.0119694 30.695C-0.0180306 30.835 0.0119694 30.965 0.0619694 31.075C0.0919694 31.135 0.131969 31.185 0.181969 31.225C0.231969 31.265 0.291969 31.305 0.351969 31.325L4.60197 32.835C4.60197 32.835 4.70197 32.865 4.74197 32.885C4.80197 32.905 4.85197 32.925 4.91197 32.945L4.98197 32.965C5.05197 32.985 5.12197 33.015 5.19197 33.035C5.37197 33.095 5.56197 33.155 5.74197 33.215C5.76197 33.215 5.78197 33.225 5.79197 33.235C9.32197 34.355 12.972 34.965 16.682 35.045C16.952 35.045 17.212 35.045 17.482 35.045H17.512C20.902 35.045 24.262 34.595 27.522 33.715C28.482 33.455 29.432 33.165 30.372 32.825L31.502 32.425L34.702 31.295C34.902 31.225 35.032 31.045 35.062 30.855C35.062 30.825 35.062 30.785 35.062 30.755L35.082 30.765ZM33.302 28.095C31.922 28.605 23.712 31.545 17.962 31.375C13.352 31.245 9.49197 30.565 6.51197 29.785L6.74197 28.915C6.74197 28.915 6.74197 28.905 6.74197 28.895C6.79197 28.685 6.84197 28.475 6.89197 28.265C9.12197 29.035 11.422 29.545 13.862 29.795C15.072 29.925 16.302 29.995 17.502 29.995H17.812C21.732 29.995 25.462 29.255 30.282 27.545L32.932 26.625C33.022 27.005 33.162 27.535 33.302 28.095ZM19.112 10.945C19.202 11.045 19.302 11.155 19.392 11.255C19.412 11.275 19.432 11.305 19.452 11.325C20.492 12.485 21.472 13.715 22.362 15.085C22.422 15.165 22.472 15.255 22.522 15.335C22.622 15.485 22.722 15.635 22.812 15.785C22.892 15.905 22.972 16.035 23.052 16.155C23.232 16.435 23.402 16.715 23.572 17.005C23.582 17.025 23.592 17.045 23.602 17.065C23.842 17.465 24.072 17.865 24.292 18.265C25.052 19.645 25.722 21.065 26.302 22.525C26.322 22.565 26.332 22.605 26.352 22.645C26.472 22.945 26.582 23.255 26.702 23.555C26.732 23.635 26.762 23.715 26.792 23.795C26.892 24.075 26.992 24.355 27.082 24.645C27.122 24.755 27.152 24.865 27.192 24.965C27.282 25.225 27.362 25.495 27.442 25.765C27.482 25.895 27.522 26.025 27.562 26.155C27.632 26.405 27.702 26.655 27.772 26.905C27.802 27.005 27.832 27.105 27.852 27.205C27.622 27.285 27.402 27.355 27.172 27.415C25.912 27.795 24.722 28.095 23.582 28.325C21.592 28.725 19.712 28.905 17.802 28.905H17.632H17.552H17.522H17.502C17.492 28.905 17.482 28.905 17.462 28.905C17.102 28.905 16.732 28.905 16.372 28.885C16.232 28.885 16.092 28.875 15.952 28.865C15.692 28.855 15.442 28.835 15.182 28.815C14.932 28.795 14.682 28.775 14.422 28.755C14.272 28.745 14.112 28.725 13.962 28.715C13.902 28.715 13.852 28.705 13.792 28.695C13.642 28.675 13.492 28.655 13.342 28.645C11.192 28.385 9.16197 27.915 7.18197 27.235C7.16197 27.235 7.13197 27.215 7.11197 27.215C7.15197 27.065 7.18197 26.925 7.22197 26.775C7.27197 26.565 7.33197 26.355 7.38197 26.145C7.44197 25.935 7.50197 25.735 7.56197 25.525C7.62197 25.325 7.68197 25.125 7.74197 24.935C7.81197 24.715 7.88197 24.495 7.96197 24.275C8.02197 24.095 8.08197 23.915 8.14197 23.735C8.22197 23.495 8.31197 23.265 8.40197 23.025C8.46197 22.865 8.52197 22.715 8.58197 22.555C8.68197 22.295 8.79197 22.045 8.89197 21.785C8.95197 21.655 9.00197 21.515 9.06197 21.385C9.18197 21.115 9.30197 20.845 9.42197 20.575C9.47197 20.465 9.52197 20.345 9.58197 20.235C9.71197 19.955 9.85197 19.675 9.99197 19.395C10.042 19.295 10.092 19.195 10.142 19.085C10.282 18.805 10.432 18.535 10.582 18.255C10.622 18.175 10.672 18.095 10.712 18.015C10.742 17.955 10.782 17.885 10.812 17.825C10.852 17.745 10.902 17.665 10.942 17.585C11.322 16.915 11.752 16.225 12.222 15.525C12.252 15.485 12.282 15.435 12.312 15.395C12.342 15.355 12.372 15.305 12.402 15.265C12.512 15.105 12.622 14.955 12.732 14.795C12.932 14.515 13.132 14.235 13.332 13.955C13.452 13.795 13.562 13.645 13.682 13.485C13.812 13.315 13.942 13.155 14.072 12.995C14.202 12.835 14.322 12.685 14.452 12.525C14.572 12.375 14.702 12.225 14.822 12.075C15.012 11.845 15.212 11.615 15.412 11.395C15.512 11.285 15.612 11.175 15.712 11.065C15.942 10.815 16.172 10.565 16.412 10.325C16.502 10.235 16.582 10.145 16.672 10.055C16.892 9.83502 17.112 9.61502 17.332 9.39502C17.372 9.35502 17.422 9.30502 17.462 9.26502C18.012 9.81502 18.552 10.385 19.082 10.955L19.112 10.945ZM18.292 8.51502C18.612 8.20502 18.942 7.89502 19.252 7.60502L19.452 7.43502C21.712 10.145 23.982 12.835 25.732 15.905C27.632 19.235 29.192 22.735 30.422 26.355L29.932 26.525C29.582 26.645 29.242 26.765 28.912 26.875C28.072 23.685 26.852 20.615 25.272 17.725C24.672 16.625 24.002 15.535 23.292 14.485C21.812 12.205 20.112 10.315 18.312 8.50502L18.292 8.51502ZM21.272 5.86502C24.222 8.82502 26.732 12.165 28.742 15.825C30.432 18.905 31.742 22.185 32.662 25.575L31.442 25.995C30.192 22.315 28.602 18.755 26.672 15.365C24.892 12.235 22.662 9.48502 20.352 6.71502L21.272 5.85502V5.86502ZM1.19197 30.465L2.09197 26.545C3.00197 22.605 4.46197 18.825 6.45197 15.305C8.58197 11.535 11.262 8.13502 14.432 5.17502L17.562 2.25502L18.432 3.09502C14.302 6.63502 10.922 10.705 8.12197 15.515C5.34197 20.295 3.41197 25.465 2.36197 30.885L1.19197 30.465ZM5.69197 28.645L4.86197 31.765L3.40197 31.245C4.42197 25.885 6.32197 20.775 9.07197 16.055C11.822 11.315 15.142 7.32502 19.222 3.84502L20.502 5.07502L18.532 6.77502C18.112 7.16502 17.682 7.57502 17.262 7.98502C17.222 8.00502 17.182 8.03502 17.142 8.07502C15.042 10.035 13.152 12.235 11.542 14.625C10.982 15.435 10.472 16.245 10.032 17.035C9.98197 17.125 9.93197 17.215 9.88197 17.305C9.85197 17.365 9.82197 17.425 9.79197 17.475C8.06197 20.595 6.77197 23.945 5.97197 27.425C5.97197 27.465 5.96197 27.505 5.96197 27.545C5.87197 27.905 5.78197 28.275 5.69197 28.635V28.645ZM30.032 31.815C26.012 33.245 21.802 33.965 17.542 33.975H17.512C13.552 33.975 9.65197 33.355 5.89197 32.125L6.23197 30.845C9.28197 31.645 13.232 32.345 17.932 32.475C18.102 32.475 18.262 32.475 18.432 32.475C24.242 32.475 31.872 29.785 33.562 29.165C33.692 29.665 33.802 30.125 33.882 30.455L30.022 31.825L30.032 31.815Z" fill="url(#paint1_linear_186_832)"/>
<path id="Vector_5" d="M17.472 28.905H17.452C13.882 28.905 10.372 28.325 7.00195 27.185C7.81195 23.855 9.07195 20.675 10.752 17.695C12.552 14.505 14.802 11.615 17.452 9.07501C20.172 11.765 22.472 14.825 24.312 18.165C25.872 21.005 27.072 24.025 27.902 27.185C24.542 28.325 21.042 28.895 17.492 28.905H17.472Z" fill="url(#paint2_linear_186_832)"/>
<g id="Vector_6" filter="url(#filter0_d_186_832)">
<path d="M22.592 23.985L22.262 22.685C21.982 21.585 21.562 20.525 21.012 19.545C20.362 18.385 19.542 17.335 18.572 16.415L17.542 15.445L16.502 16.395C15.552 17.275 14.742 18.285 14.102 19.395C13.532 20.385 13.102 21.455 12.832 22.565C12.832 22.565 12.832 22.585 12.832 22.595C12.832 22.635 12.812 22.675 12.802 22.715L12.672 23.265L12.502 23.985L13.762 24.425C14.972 24.845 16.252 25.065 17.542 25.065C18.832 25.065 20.102 24.845 21.312 24.425L22.602 23.975L22.592 23.985Z" fill="#F7F7F7"/>
</g>
</g>
</g>
<defs>
<filter id="filter0_d_186_832" x="8.50195" y="11.445" width="18.1" height="17.62" filterUnits="userSpaceOnUse" color-interpolation-filters="sRGB">
<feFlood flood-opacity="0" result="BackgroundImageFix"/>
<feColorMatrix in="SourceAlpha" type="matrix" values="0 0 0 0 0 0 0 0 0 0 0 0 0 0 0 0 0 0 127 0" result="hardAlpha"/>
<feOffset/>
<feGaussianBlur stdDeviation="2"/>
<feComposite in2="hardAlpha" operator="out"/>
<feColorMatrix type="matrix" values="0 0 0 0 1 0 0 0 0 1 0 0 0 0 1 0 0 0 1 0"/>
<feBlend mode="normal" in2="BackgroundImageFix" result="effect1_dropShadow_186_832"/>
<feBlend mode="normal" in="SourceGraphic" in2="effect1_dropShadow_186_832" result="shape"/>
</filter>
<linearGradient id="paint0_linear_186_832" x1="150.5" y1="12.4998" x2="165.003" y2="27.8343" gradientUnits="userSpaceOnUse">
<stop offset="0.0001" stop-color="#FF00F7"/>
<stop offset="1" stop-color="#0B93FF"/>
</linearGradient>
<linearGradient id="paint1_linear_186_832" x1="0.00196938" y1="18.005" x2="35.082" y2="18.005" gradientUnits="userSpaceOnUse">
<stop stop-color="#FF00F2"/>
<stop offset="1" stop-color="#0099FF"/>
</linearGradient>
<linearGradient id="paint2_linear_186_832" x1="-0.618046" y1="24.155" x2="46.742" y2="11.995" gradientUnits="userSpaceOnUse">
<stop stop-color="#FF00F2"/>
<stop offset="1" stop-color="#0099FF"/>
</linearGradient>
</defs>
</svg>
