<svg width="24" height="24" viewBox="0 0 24 24" fill="none" xmlns="http://www.w3.org/2000/svg">
<g id="edit/pencil">
<g id="Vector">
<path d="M3 21V17.7426C3 16.947 3.31607 16.1839 3.87868 15.6213L11 8.5L15.5 13L8.37868 20.1213C7.81607 20.6839 7.05301 21 6.25736 21H3Z" fill="#242730"/>
<path d="M3 21V17.7426C3 16.947 3.31607 16.1839 3.87868 15.6213L11 8.5L15.5 13L8.37868 20.1213C7.81607 20.6839 7.05301 21 6.25736 21H3Z" fill="black" fill-opacity="0.2"/>
<path d="M3 21V17.7426C3 16.947 3.31607 16.1839 3.87868 15.6213L11 8.5L15.5 13L8.37868 20.1213C7.81607 20.6839 7.05301 21 6.25736 21H3Z" fill="black" fill-opacity="0.2"/>
<path d="M3 21V17.7426C3 16.947 3.31607 16.1839 3.87868 15.6213L11 8.5L15.5 13L8.37868 20.1213C7.81607 20.6839 7.05301 21 6.25736 21H3Z" fill="black" fill-opacity="0.2"/>
<path d="M3 21V17.7426C3 16.947 3.31607 16.1839 3.87868 15.6213L11 8.5L15.5 13L8.37868 20.1213C7.81607 20.6839 7.05301 21 6.25736 21H3Z" fill="black" fill-opacity="0.2"/>
<path d="M17 11.5L19.1187 9.3813C20.2902 8.20973 20.2903 6.31023 19.1187 5.13866L18.8613 4.8813C17.6897 3.70973 15.7903 3.70973 14.6187 4.88131L12.5 7L17 11.5Z" fill="#242730"/>
<path d="M17 11.5L19.1187 9.3813C20.2902 8.20973 20.2903 6.31023 19.1187 5.13866L18.8613 4.8813C17.6897 3.70973 15.7903 3.70973 14.6187 4.88131L12.5 7L17 11.5Z" fill="black" fill-opacity="0.2"/>
<path d="M17 11.5L19.1187 9.3813C20.2902 8.20973 20.2903 6.31023 19.1187 5.13866L18.8613 4.8813C17.6897 3.70973 15.7903 3.70973 14.6187 4.88131L12.5 7L17 11.5Z" fill="black" fill-opacity="0.2"/>
<path d="M17 11.5L19.1187 9.3813C20.2902 8.20973 20.2903 6.31023 19.1187 5.13866L18.8613 4.8813C17.6897 3.70973 15.7903 3.70973 14.6187 4.88131L12.5 7L17 11.5Z" fill="black" fill-opacity="0.2"/>
<path d="M17 11.5L19.1187 9.3813C20.2902 8.20973 20.2903 6.31023 19.1187 5.13866L18.8613 4.8813C17.6897 3.70973 15.7903 3.70973 14.6187 4.88131L12.5 7L17 11.5Z" fill="black" fill-opacity="0.2"/>
</g>
</g>
</svg>
