<svg width="24" height="24" viewBox="0 0 24 24" fill="none" xmlns="http://www.w3.org/2000/svg">
<g id="arrows/chevron-circle-down">
<path id="Vector" fill-rule="evenodd" clip-rule="evenodd" d="M22 12C22 17.5228 17.5228 22 12 22C6.47715 22 2 17.5228 2 12C2 6.47715 6.47715 2 12 2C17.5228 2 22 6.47715 22 12ZM7.34149 11.7526C6.92586 11.3889 6.88374 10.7571 7.24742 10.3415C7.6111 9.92587 8.24287 9.88375 8.6585 10.2474L12 13.1712L15.3415 10.2474C15.7571 9.88375 16.3889 9.92587 16.7526 10.3415C17.1163 10.7571 17.0741 11.3889 16.6585 11.7526L12 15.8288L7.34149 11.7526Z" fill="#9FAEC0"/>
</g>
</svg>
