<svg width="29" height="29" viewBox="0 0 29 29" fill="currentColor" xmlns="http://www.w3.org/2000/svg">
<g id="interface/apps">
<g id="Vector">
<path fill-rule="evenodd" clip-rule="evenodd" d="M3.625 7.25C3.625 5.24797 5.24797 3.625 7.25 3.625H9.66667C11.6687 3.625 13.2917 5.24797 13.2917 7.25V9.66667C13.2917 11.6687 11.6687 13.2917 9.66667 13.2917H7.25C5.24797 13.2917 3.625 11.6687 3.625 9.66667V7.25Z" fill="currentColor"/>
<path fill-rule="evenodd" clip-rule="evenodd" d="M15.7083 7.25C15.7083 5.24797 17.3313 3.625 19.3333 3.625H21.75C23.752 3.625 25.375 5.24797 25.375 7.25V9.66667C25.375 11.6687 23.752 13.2917 21.75 13.2917H19.3333C17.3313 13.2917 15.7083 11.6687 15.7083 9.66667V7.25Z" fill="currentColor"/>
<path fill-rule="evenodd" clip-rule="evenodd" d="M3.625 19.3333C3.625 17.3313 5.24797 15.7083 7.25 15.7083H9.66667C11.6687 15.7083 13.2917 17.3313 13.2917 19.3333V21.75C13.2917 23.752 11.6687 25.375 9.66667 25.375H7.25C5.24797 25.375 3.625 23.752 3.625 21.75V19.3333Z" fill="currentColor"/>
<path fill-rule="evenodd" clip-rule="evenodd" d="M15.7083 19.3333C15.7083 17.3313 17.3313 15.7083 19.3333 15.7083H21.75C23.752 15.7083 25.375 17.3313 25.375 19.3333V21.75C25.375 23.752 23.752 25.375 21.75 25.375H19.3333C17.3313 25.375 15.7083 23.752 15.7083 21.75V19.3333Z" fill="currentColor"/>
</g>
</g>
</svg>
