<svg width="24" height="24" viewBox="0 0 24 24" fill="currentColor" xmlns="http://www.w3.org/2000/svg">
<g id="interface/lightning">
<g id="Vector">
<path d="M14.0002 2L5.66217 13.41C5.17934 14.0707 5.65123 15 6.46956 15H11.0002L10.0002 22L18.3383 10.59C18.8211 9.9293 18.3492 9 17.5309 9H13.0002L14.0002 2Z" fill="currentColor"/>
<path d="M14.0002 2L5.66217 13.41C5.17934 14.0707 5.65123 15 6.46956 15H11.0002L10.0002 22L18.3383 10.59C18.8211 9.9293 18.3492 9 17.5309 9H13.0002L14.0002 2Z" fill="black" fill-opacity="0.2"/>
<path d="M14.0002 2L5.66217 13.41C5.17934 14.0707 5.65123 15 6.46956 15H11.0002L10.0002 22L18.3383 10.59C18.8211 9.9293 18.3492 9 17.5309 9H13.0002L14.0002 2Z" fill="black" fill-opacity="0.2"/>
<path d="M14.0002 2L5.66217 13.41C5.17934 14.0707 5.65123 15 6.46956 15H11.0002L10.0002 22L18.3383 10.59C18.8211 9.9293 18.3492 9 17.5309 9H13.0002L14.0002 2Z" fill="black" fill-opacity="0.2"/>
<path d="M14.0002 2L5.66217 13.41C5.17934 14.0707 5.65123 15 6.46956 15H11.0002L10.0002 22L18.3383 10.59C18.8211 9.9293 18.3492 9 17.5309 9H13.0002L14.0002 2Z" fill="black" fill-opacity="0.2"/>
</g>
</g>
</svg>
