<svg width="36" height="36" viewBox="0 0 36 36" fill="currentColor" xmlns="http://www.w3.org/2000/svg">
<g id="Group 6815">
<path id="Vector" d="M26.0589 35.9987C25.4412 35.8397 24.7989 35.6247 24.2718 35.1479C23.4996 34.4497 23.1058 33.618 23.1013 32.6758C23.0862 29.4697 23.075 26.3349 23.1035 23.2302C23.1116 22.3473 23.4669 21.5164 24.1033 20.8909C24.7377 20.2673 25.5785 19.9174 26.4706 19.9051C26.9033 19.8992 27.3602 19.8964 27.9083 19.8964C28.3508 19.8964 28.801 19.8984 29.2365 19.9001C29.4145 19.9009 29.5923 19.9015 29.7703 19.902C30.7432 19.9054 31.6348 20.2609 32.2808 20.9034C32.9281 21.5468 33.2869 22.4373 33.2914 23.4108C33.3045 26.251 33.2984 29.1262 33.2911 31.8278V31.9203C33.29 32.3728 33.2892 32.8407 33.2045 33.2747C32.9404 34.6292 31.8637 35.6748 30.4618 35.9383C30.3995 35.9501 30.3436 35.9705 30.2941 35.9886C30.2846 35.992 30.2751 35.9956 30.2656 35.999H26.0592L26.0589 35.9987ZM27.7485 21.3518C27.396 21.3518 27.0433 21.352 26.6908 21.3529C26.0385 21.3543 25.4954 21.5513 25.1206 21.923C24.7453 22.2953 24.5457 22.8353 24.5438 23.4846C24.5407 24.5578 24.5415 25.649 24.5424 26.7041C24.5426 27.1116 24.5429 27.5188 24.5432 27.9263C24.5432 28.3836 24.5426 28.8408 24.5418 29.2978C24.5401 30.3507 24.5387 31.4393 24.5457 32.5106C24.5496 33.0844 24.7542 33.6026 25.1218 33.9696C25.4885 34.336 26.005 34.5395 26.5757 34.5428C27.1392 34.5462 27.6928 34.5476 28.2216 34.5476C28.7504 34.5476 29.2971 34.5459 29.8109 34.5425C30.9836 34.535 31.8369 33.6761 31.8394 32.5008C31.8456 29.5561 31.8459 26.4959 31.8394 23.4049C31.8383 22.8258 31.6318 22.3026 31.2584 21.932C30.8864 21.5628 30.3623 21.3582 29.7829 21.3559C29.1107 21.3532 28.4262 21.3518 27.749 21.3518H27.7485Z" fill="currentColor"/>
<path id="Vector_2" d="M35.2524 12.4534C35.0548 12.4534 34.8516 12.3422 34.5927 12.0926C33.3641 10.907 31.9353 10.1292 30.3464 9.78118C29.5741 9.61209 28.8122 9.52628 28.0822 9.52628C25.7666 9.52628 23.6522 10.3838 21.7983 12.0753C21.5526 12.2994 21.3735 12.4462 21.1292 12.4462C21.1138 12.4462 21.0979 12.4456 21.0819 12.4442C20.7572 12.4193 20.5478 12.2667 20.4416 11.978C20.3315 11.6787 20.3949 11.4171 20.6353 11.1784C21.5171 10.3022 22.5415 9.58917 23.6799 9.05981C25.0933 8.40243 26.6053 8.06927 28.1744 8.06927C29.5375 8.06927 30.8699 8.3225 32.1351 8.82196C33.4261 9.33176 34.5855 10.0744 35.5808 11.0294C35.6951 11.1393 35.7884 11.2798 35.8874 11.4285C35.9237 11.4833 35.9609 11.5392 36 11.5948V11.8838C35.9564 11.9344 35.915 11.9867 35.8745 12.0378C35.763 12.1787 35.6573 12.3115 35.5355 12.3763C35.4379 12.4283 35.3451 12.4534 35.2521 12.4534H35.2524Z" fill="currentColor"/>
<path id="Vector_3" d="M4.09115 15.0542C3.6979 15.0542 3.38011 15.0497 3.09056 15.0405C1.39346 14.9857 0.048532 13.6413 0.0281289 11.9794C-0.00988247 8.84323 -0.00932348 5.92809 0.0295263 3.06718C0.0409857 2.22422 0.383088 1.44751 0.993226 0.88041C1.60141 0.314712 2.42284 0.00279495 3.30633 0.00223596C5.40813 0.000838486 7.70027 0 10.5198 0C12.0649 0 13.6096 0 15.1544 0.000279495C16.6992 0.000279495 18.2439 0.00055899 19.789 0.00055899H25.7562C27.1302 0.00055899 28.5037 0.00055899 29.8777 0.00055899C31.9496 0.00111798 33.29 1.33655 33.2928 3.40313C33.2928 3.5985 33.2936 3.79387 33.2945 3.98924C33.2964 4.57645 33.2987 5.1838 33.2886 5.77996C33.2819 6.18998 33.0413 6.4759 32.6611 6.52649C32.6271 6.53096 32.5924 6.53348 32.5583 6.53348C32.2321 6.53348 31.956 6.32414 31.8716 6.01278C31.8447 5.91412 31.8422 5.79757 31.8417 5.67711C31.8403 5.29755 31.8403 4.91157 31.8406 4.53816C31.8406 4.13122 31.8411 3.71058 31.8392 3.29637C31.8336 2.17811 31.1127 1.45561 30.0026 1.45533C25.6053 1.45449 21.2066 1.45421 16.8093 1.45421C12.412 1.45421 7.79614 1.45449 3.289 1.45561C2.20204 1.45561 1.4706 2.18761 1.46921 3.2768C1.46641 5.33948 1.46697 7.43653 1.46753 9.46483C1.46753 10.1736 1.46781 10.8821 1.46781 11.5909C1.46781 12.8554 2.14167 13.6106 3.27027 13.6106C3.41058 13.6106 3.55899 13.5988 3.71132 13.5754L3.867 13.4446C3.94274 13.2201 4.00702 12.999 4.06963 12.7852C4.19959 12.3397 4.32229 11.9191 4.52213 11.5513C5.19739 10.3092 6.28742 9.64286 7.67456 9.62442C9.04353 9.60625 10.5229 9.59787 12.3298 9.59787C13.4319 9.59787 14.5524 9.60094 15.636 9.60401C16.3084 9.60597 16.9809 9.60765 17.6534 9.60877C17.8756 9.60905 18.076 9.68814 18.2174 9.83152C18.3499 9.96568 18.422 10.1468 18.42 10.3416C18.4158 10.7687 18.0872 11.0557 17.6022 11.056C16.79 11.0566 15.9772 11.0568 15.165 11.0568H11.8586C10.7711 11.0566 9.33867 11.0568 7.9043 11.0591C6.52639 11.0613 5.52804 12.0222 5.47633 13.3959L5.67198 13.5988H9.88313C12.6429 13.5988 15.4026 13.5988 18.1623 13.6002C18.3418 13.6002 18.5028 13.6028 18.6559 13.6318C19.0067 13.6983 19.2526 14.0189 19.2278 14.3775C19.2037 14.7269 18.9343 15.005 18.5874 15.0388C18.4916 15.0483 18.3924 15.0494 18.2993 15.0494C18.2739 15.0494 18.1718 15.0491 18.1461 15.0491C15.705 15.0494 13.2645 15.0497 10.8242 15.0497C8.98986 15.0497 7.15582 15.0497 5.32121 15.0494H5.31394C5.10991 15.0494 4.90588 15.0505 4.70185 15.0517C4.49838 15.0528 4.29518 15.0539 4.09171 15.0539L4.09115 15.0542Z" fill="currentColor"/>
<path id="Vector_4" d="M5.67309 28.4076C5.62418 28.4076 5.57499 28.4015 5.52636 28.3895C5.35531 28.347 5.17308 28.2425 5.05094 28.117C4.25801 27.3017 3.84771 26.2907 3.83094 25.1116L3.76358 25.0221C3.80159 24.874 3.83876 24.7247 3.87482 24.5797C3.97907 24.1602 4.08696 23.7261 4.21944 23.311C4.30133 23.0545 4.41005 22.8094 4.52493 22.5497C4.60738 22.3636 4.69262 22.171 4.76641 21.9753C5.17196 20.8996 4.99448 19.8858 4.23928 18.9618C4.07019 18.755 3.96426 18.5672 3.92429 18.4037C3.84883 18.0957 4.05761 17.8072 4.30245 17.6812C4.40279 17.6295 4.5157 17.6024 4.6289 17.6024C4.82594 17.6024 5.01153 17.6817 5.15127 17.826C6.10491 18.8092 6.52555 19.9985 6.40202 21.3604C6.33829 22.0623 6.06327 22.6878 5.77203 23.3502C5.69629 23.5226 5.61775 23.7009 5.54452 23.8787C5.20745 24.6957 5.19096 25.4668 5.49561 26.1706C5.62949 26.4794 5.83324 26.7516 6.03029 27.0146C6.07864 27.0792 6.12699 27.1435 6.17395 27.2083C6.31845 27.407 6.44841 27.7153 6.24717 28.0558C6.11889 28.2726 5.89892 28.4076 5.67281 28.4076H5.67309Z" fill="currentColor"/>
<path id="Vector_5" d="M17.0589 28.4093C16.8596 28.4093 16.6799 28.3235 16.5245 28.1541C15.9225 27.4976 15.534 26.7868 15.3702 26.0417C15.2056 25.2932 15.2629 24.4871 15.5404 23.6464C15.6525 23.3068 15.8 22.9678 15.9426 22.6397C16.0169 22.4689 16.0938 22.2923 16.1656 22.1159C16.645 20.9384 16.4661 19.8593 15.634 18.909C15.2855 18.5107 15.2696 18.0945 15.5918 17.796C15.7274 17.6702 15.8867 17.604 16.0524 17.604C16.2788 17.604 16.5158 17.7261 16.7196 17.9481C17.4938 18.7902 17.8552 19.7969 17.8893 21.2098C17.87 21.2847 17.8479 21.3736 17.8227 21.475C17.742 21.8006 17.6316 22.247 17.4941 22.6819C17.4116 22.9429 17.3001 23.1925 17.1824 23.4566C17.1209 23.5941 17.0575 23.7364 16.9991 23.8792C16.5083 25.0794 16.6908 26.1683 17.5413 27.1158C17.7627 27.3623 17.839 27.5783 17.7889 27.8159C17.7277 28.1074 17.5614 28.295 17.2951 28.3732C17.2137 28.397 17.1344 28.4093 17.0594 28.4093H17.0589Z" fill="currentColor"/>
<path id="Vector_6" d="M11.3527 28.4121C11.1557 28.4121 10.9656 28.3243 10.8035 28.1583C10.1386 27.4777 9.73277 26.651 9.59749 25.701C9.48402 24.9036 9.5919 24.1322 9.92702 23.342L9.97313 23.2336C10.1358 22.8507 10.3041 22.4546 10.4583 22.0591C10.9089 20.904 10.7267 19.8475 9.91668 18.9185C9.55473 18.5031 9.53964 18.0786 9.87671 17.7826C10.0109 17.6649 10.1612 17.6051 10.3239 17.6051C10.5573 17.6051 10.7996 17.7317 11.0067 17.962C11.7326 18.7689 12.1322 19.7326 12.2275 20.9073C12.1862 21.0745 12.1468 21.2436 12.1085 21.4076C12.016 21.804 11.9207 22.2134 11.7963 22.6028C11.7091 22.8764 11.5936 23.138 11.4712 23.4147C11.3868 23.6056 11.2996 23.8029 11.2236 24.0033C10.8013 25.1126 10.9849 26.1476 11.7689 27.0789C11.9176 27.2555 12.0151 27.4263 12.0512 27.573C12.1238 27.8693 11.9704 28.1806 11.6781 28.3307C11.5727 28.385 11.4631 28.4123 11.353 28.4123L11.3527 28.4121Z" fill="currentColor"/>
<path id="Vector_7" d="M32.6575 15.0556C32.5253 15.0556 32.3926 15.0128 32.2629 14.9281C32.1877 14.8789 32.1167 14.8127 32.0412 14.7422C32.0247 14.7266 32.008 14.7112 31.9915 14.6958C30.9476 13.7347 29.597 13.2053 28.1887 13.2053C26.7803 13.2053 25.4409 13.7291 24.3948 14.6802C24.2067 14.8512 24.0021 14.9731 23.8185 15.0237C23.7743 15.036 23.7282 15.0421 23.6821 15.0421C23.4529 15.0421 23.2159 14.8873 23.0924 14.6567C22.9367 14.3663 22.9962 14.0309 23.2475 13.7808C24.1242 12.9093 25.1349 12.3201 26.2518 12.0295C26.9502 11.8478 27.6355 11.7556 28.2887 11.7556C30.0328 11.7556 31.632 12.4112 33.0429 13.7048C33.1598 13.8118 33.2484 13.965 33.3426 14.1274C33.3758 14.1846 33.4096 14.2433 33.4457 14.3012C33.3708 14.6344 33.2363 14.8336 33.0046 14.9597C32.8887 15.0229 32.7718 15.055 32.6572 15.055L32.6575 15.0556Z" fill="currentColor"/>
<path id="Vector_8" d="M26.3018 17.6602C26.1031 17.6602 25.9239 17.5766 25.7833 17.4184C25.5097 17.1101 25.5385 16.6856 25.8538 16.3857C26.4916 15.7792 27.277 15.4603 28.1884 15.4376C29.1172 15.4664 29.8718 15.7699 30.4951 16.3655C30.812 16.6682 30.8475 17.0936 30.5814 17.3997C30.4397 17.5629 30.2595 17.6493 30.0607 17.6493C29.8866 17.6493 29.7091 17.5822 29.5479 17.455C29.0557 17.0671 28.6225 16.8865 28.1848 16.8865C27.7471 16.8865 27.3105 17.0696 26.8203 17.4628C26.659 17.592 26.4798 17.6604 26.3015 17.6604L26.3018 17.6602Z" fill="currentColor"/>
<path id="Vector_9" d="M5.35447 5.44483C5.13367 5.44483 4.95144 5.44344 4.78151 5.44064C4.33264 5.43309 4.00926 5.12789 4.01261 4.71507C4.01597 4.3112 4.33627 4.0018 4.75803 3.99537C5.24575 3.98783 5.75555 3.98419 6.27345 3.98419C6.75083 3.98419 7.25252 3.98727 7.76512 3.99369C8.21566 3.99928 8.52842 4.29974 8.5259 4.72457C8.52339 5.14605 8.21259 5.43393 7.75226 5.44064C7.58233 5.44316 7.4001 5.44427 7.17957 5.44427C7.02809 5.44427 6.87632 5.44372 6.72484 5.44316C6.57279 5.4426 6.42075 5.44204 6.2687 5.44204C6.11665 5.44204 5.96237 5.4426 5.81005 5.44316C5.65828 5.44372 5.50652 5.44455 5.35475 5.44455L5.35447 5.44483Z" fill="currentColor"/>
<path id="Vector_10" d="M27.7334 28.6779C27.63 28.6779 27.5453 28.6753 27.4665 28.6698C27.0564 28.6413 26.775 28.3377 26.7817 27.9319C26.7881 27.5406 27.0752 27.2446 27.464 27.2284C27.6954 27.2189 27.9346 27.2139 28.1747 27.2139C28.4148 27.2139 28.6546 27.2186 28.8994 27.2278C29.3005 27.2429 29.6024 27.5529 29.6018 27.9484C29.6012 28.3422 29.3027 28.6457 28.8922 28.6706C28.8173 28.6751 28.7371 28.6773 28.6395 28.6773C28.5652 28.6773 28.4908 28.6762 28.4165 28.6748C28.343 28.6737 28.2695 28.6726 28.1962 28.6723H28.1881C28.1107 28.6723 28.0327 28.6737 27.9573 28.6748C27.8835 28.6762 27.8072 28.6773 27.7331 28.6773L27.7334 28.6779Z" fill="currentColor"/>
<path id="Vector_11" d="M28.6493 32.3094C28.5719 32.3094 28.4944 32.3083 28.417 32.3071C28.3399 32.306 28.2627 32.3049 28.1856 32.3049H28.1794C28.1026 32.3049 28.0254 32.306 27.9486 32.3071C27.8734 32.3083 27.7985 32.3094 27.7233 32.3094C27.6191 32.3094 27.5333 32.3071 27.4536 32.3027C27.09 32.2814 26.8085 32.0067 26.7845 31.6492C26.7613 31.3065 26.9351 30.9404 27.3125 30.9041C27.5978 30.8764 27.8893 30.8624 28.1789 30.8624C28.4684 30.8624 28.7767 30.8772 29.0699 30.9066C29.4263 30.9421 29.6314 31.3202 29.5998 31.6509C29.5649 32.0148 29.2843 32.2831 28.9179 32.3032C28.8382 32.3077 28.753 32.3097 28.6493 32.3097V32.3094Z" fill="currentColor"/>
</g>
</svg>
