<svg width="172" height="172" viewBox="0 0 172 172" fill="none" xmlns="http://www.w3.org/2000/svg">
<path d="M150.835 0H20.5217C9.18789 0 0 9.2146 0 20.5814V151.273C0 162.64 9.18789 171.855 20.5217 171.855H150.835C162.169 171.855 171.357 162.64 171.357 151.273V20.5814C171.357 9.2146 162.169 0 150.835 0Z" fill="url(#paint0_linear_24_1034)"/>
<mask id="mask0_24_1034" style="mask-type:luminance" maskUnits="userSpaceOnUse" x="0" y="0" width="172" height="172">
<path d="M151.401 0H20.5988C9.2224 0 0 9.2224 0 20.5988V151.401C0 162.778 9.2224 172 20.5988 172H151.401C162.778 172 172 162.778 172 151.401V20.5988C172 9.2224 162.778 0 151.401 0Z" fill="white"/>
</mask>
<g mask="url(#mask0_24_1034)">
<path opacity="0.04" d="M25.7487 168.91C97.9888 168.91 156.551 110.117 156.551 37.5928C156.551 -34.9318 97.9888 -93.7246 25.7487 -93.7246C-46.4915 -93.7246 -105.054 -34.9318 -105.054 37.5928C-105.054 110.117 -46.4915 168.91 25.7487 168.91Z" fill="white"/>
<path opacity="0.07" d="M25.7486 139.042C81.493 139.042 126.683 93.6216 126.683 37.5928C126.683 -18.436 81.493 -63.8563 25.7486 -63.8563C-29.9958 -63.8563 -75.1855 -18.436 -75.1855 37.5928C-75.1855 93.6216 -29.9958 139.042 25.7486 139.042Z" fill="white"/>
<path opacity="0.07" d="M25.2337 113.293C66.4731 113.293 99.9043 79.8622 99.9043 38.6227C99.9043 -2.61672 66.4731 -36.0479 25.2337 -36.0479C-16.0058 -36.0479 -49.437 -2.61672 -49.437 38.6227C-49.437 79.8622 -16.0058 113.293 25.2337 113.293Z" fill="white"/>
<path opacity="0.07" d="M25.7486 93.7246C56.4649 93.7246 81.3654 68.8241 81.3654 38.1078C81.3654 7.39153 56.4649 -17.5089 25.7486 -17.5089C-4.96769 -17.5089 -29.8682 7.39153 -29.8682 38.1078C-29.8682 68.8241 -4.96769 93.7246 25.7486 93.7246Z" fill="white"/>
</g>
<defs>
<linearGradient id="paint0_linear_24_1034" x1="171.357" y1="167.73" x2="6.04466" y2="6.83834" gradientUnits="userSpaceOnUse">
<stop stop-color="#7300BD"/>
<stop offset="1" stop-color="#5604C4"/>
</linearGradient>
</defs>
</svg>
