<svg width="124" height="22" viewBox="0 0 124 22" fill="none" xmlns="http://www.w3.org/2000/svg">
<g id="Group 6069">
<g id="Group 6053">
<g id="Vector">
<path d="M38.7204 15.8473L33.8628 0H8.76621L3.90871 15.8473H0V21.9999H27.9692L26.3685 15.8473H10.2214L13.0562 6.15265H29.6107L32.4455 15.8473L33.9094 21.9999H42.6058V15.8473H38.7204Z" fill="#242730"/>
<path d="M38.7204 15.8473L33.8628 0H8.76621L3.90871 15.8473H0V21.9999H27.9692L26.3685 15.8473H10.2214L13.0562 6.15265H29.6107L32.4455 15.8473L33.9094 21.9999H42.6058V15.8473H38.7204Z" fill="black" fill-opacity="0.2"/>
<path d="M38.7204 15.8473L33.8628 0H8.76621L3.90871 15.8473H0V21.9999H27.9692L26.3685 15.8473H10.2214L13.0562 6.15265H29.6107L32.4455 15.8473L33.9094 21.9999H42.6058V15.8473H38.7204Z" fill="black" fill-opacity="0.2"/>
<path d="M38.7204 15.8473L33.8628 0H8.76621L3.90871 15.8473H0V21.9999H27.9692L26.3685 15.8473H10.2214L13.0562 6.15265H29.6107L32.4455 15.8473L33.9094 21.9999H42.6058V15.8473H38.7204Z" fill="black" fill-opacity="0.2"/>
<path d="M38.7204 15.8473L33.8628 0H8.76621L3.90871 15.8473H0V21.9999H27.9692L26.3685 15.8473H10.2214L13.0562 6.15265H29.6107L32.4455 15.8473L33.9094 21.9999H42.6058V15.8473H38.7204Z" fill="black" fill-opacity="0.2"/>
</g>
<g id="Vector_2">
<path d="M76.0375 0H50.9409L44.2207 21.9999H50.5975L51.7907 17.9137H69.003L67.3994 11.7407H53.5923L55.2309 6.15265H71.7883L73.2377 11.0946L73.2581 11.1615L73.4269 11.7407H73.424L75.9415 20.4516L76.4013 21.9999H82.7781L76.0375 0Z" fill="#242730"/>
<path d="M76.0375 0H50.9409L44.2207 21.9999H50.5975L51.7907 17.9137H69.003L67.3994 11.7407H53.5923L55.2309 6.15265H71.7883L73.2377 11.0946L73.2581 11.1615L73.4269 11.7407H73.424L75.9415 20.4516L76.4013 21.9999H82.7781L76.0375 0Z" fill="black" fill-opacity="0.2"/>
<path d="M76.0375 0H50.9409L44.2207 21.9999H50.5975L51.7907 17.9137H69.003L67.3994 11.7407H53.5923L55.2309 6.15265H71.7883L73.2377 11.0946L73.2581 11.1615L73.4269 11.7407H73.424L75.9415 20.4516L76.4013 21.9999H82.7781L76.0375 0Z" fill="black" fill-opacity="0.2"/>
<path d="M76.0375 0H50.9409L44.2207 21.9999H50.5975L51.7907 17.9137H69.003L67.3994 11.7407H53.5923L55.2309 6.15265H71.7883L73.2377 11.0946L73.2581 11.1615L73.4269 11.7407H73.424L75.9415 20.4516L76.4013 21.9999H82.7781L76.0375 0Z" fill="black" fill-opacity="0.2"/>
<path d="M76.0375 0H50.9409L44.2207 21.9999H50.5975L51.7907 17.9137H69.003L67.3994 11.7407H53.5923L55.2309 6.15265H71.7883L73.2377 11.0946L73.2581 11.1615L73.4269 11.7407H73.424L75.9415 20.4516L76.4013 21.9999H82.7781L76.0375 0Z" fill="black" fill-opacity="0.2"/>
</g>
<g id="Vector_3">
<path d="M123.914 10.9898C123.914 21.9796 118.996 21.9796 112.924 21.9796H95.6597C89.5885 21.9796 84.6699 21.9796 84.6699 10.9898C84.6699 0 89.5885 0 95.6597 0H112.945C119.016 0 123.914 0 123.914 10.9898ZM117.843 11.0102C117.843 6.17302 115.678 6.17302 113.006 6.17302H95.6597C92.9879 6.17302 90.8226 6.17302 90.8226 11.0102C90.8226 15.8473 92.9879 15.8473 95.6597 15.8473H113.006C115.678 15.8473 117.843 15.8473 117.843 11.0102Z" fill="#242730"/>
<path d="M123.914 10.9898C123.914 21.9796 118.996 21.9796 112.924 21.9796H95.6597C89.5885 21.9796 84.6699 21.9796 84.6699 10.9898C84.6699 0 89.5885 0 95.6597 0H112.945C119.016 0 123.914 0 123.914 10.9898ZM117.843 11.0102C117.843 6.17302 115.678 6.17302 113.006 6.17302H95.6597C92.9879 6.17302 90.8226 6.17302 90.8226 11.0102C90.8226 15.8473 92.9879 15.8473 95.6597 15.8473H113.006C115.678 15.8473 117.843 15.8473 117.843 11.0102Z" fill="black" fill-opacity="0.2"/>
<path d="M123.914 10.9898C123.914 21.9796 118.996 21.9796 112.924 21.9796H95.6597C89.5885 21.9796 84.6699 21.9796 84.6699 10.9898C84.6699 0 89.5885 0 95.6597 0H112.945C119.016 0 123.914 0 123.914 10.9898ZM117.843 11.0102C117.843 6.17302 115.678 6.17302 113.006 6.17302H95.6597C92.9879 6.17302 90.8226 6.17302 90.8226 11.0102C90.8226 15.8473 92.9879 15.8473 95.6597 15.8473H113.006C115.678 15.8473 117.843 15.8473 117.843 11.0102Z" fill="black" fill-opacity="0.2"/>
<path d="M123.914 10.9898C123.914 21.9796 118.996 21.9796 112.924 21.9796H95.6597C89.5885 21.9796 84.6699 21.9796 84.6699 10.9898C84.6699 0 89.5885 0 95.6597 0H112.945C119.016 0 123.914 0 123.914 10.9898ZM117.843 11.0102C117.843 6.17302 115.678 6.17302 113.006 6.17302H95.6597C92.9879 6.17302 90.8226 6.17302 90.8226 11.0102C90.8226 15.8473 92.9879 15.8473 95.6597 15.8473H113.006C115.678 15.8473 117.843 15.8473 117.843 11.0102Z" fill="black" fill-opacity="0.2"/>
<path d="M123.914 10.9898C123.914 21.9796 118.996 21.9796 112.924 21.9796H95.6597C89.5885 21.9796 84.6699 21.9796 84.6699 10.9898C84.6699 0 89.5885 0 95.6597 0H112.945C119.016 0 123.914 0 123.914 10.9898ZM117.843 11.0102C117.843 6.17302 115.678 6.17302 113.006 6.17302H95.6597C92.9879 6.17302 90.8226 6.17302 90.8226 11.0102C90.8226 15.8473 92.9879 15.8473 95.6597 15.8473H113.006C115.678 15.8473 117.843 15.8473 117.843 11.0102Z" fill="black" fill-opacity="0.2"/>
</g>
<g id="Rectangle 1633">
<rect x="103.958" y="7.87231" width="11.0213" height="6.29786" rx="1.49102" fill="#242730"/>
<rect x="103.958" y="7.87231" width="11.0213" height="6.29786" rx="1.49102" fill="url(#paint0_linear_516_13919)"/>
</g>
</g>
</g>
<defs>
<linearGradient id="paint0_linear_516_13919" x1="103.958" y1="7.87231" x2="113.305" y2="14.8465" gradientUnits="userSpaceOnUse">
<stop offset="0.0001" stop-color="#FF00F7"/>
<stop offset="1" stop-color="#0B93FF"/>
</linearGradient>
</defs>
</svg>
