<svg width="18" height="18" viewBox="0 0 18 18" fill="currentColor" xmlns="http://www.w3.org/2000/svg">
<g id="Telegram" clip-path="url(#clip0_516_14235)">
<path id="image 48 (Traced)" d="M1.41819 7.60156C2.52922 7.16025 16.3958 1.84948 16.718 1.74189C16.7723 1.72375 16.9157 1.7136 17.0367 1.71936C17.3132 1.73248 17.4549 1.8277 17.6049 2.10076C17.8016 2.45916 17.8559 2.13524 16.6729 7.66202C14.8926 15.9802 14.9831 15.6005 14.7209 15.8525C14.6115 15.9576 14.5475 15.9849 14.3774 15.9989C14.1022 16.0215 13.8971 15.9628 13.611 15.7794C13.4818 15.6966 12.5839 15.0462 11.6157 14.3341C10.6475 13.6219 9.81842 13.0164 9.77321 12.9884C9.69678 12.9411 9.62801 12.998 8.78817 13.8035C8.29156 14.2798 7.81412 14.726 7.72718 14.7952C7.53471 14.9484 7.20749 15.1058 7.08039 15.1063C6.98938 15.1067 6.98752 15.1001 7.01119 14.8618C7.02455 14.7271 7.08905 13.9028 7.15441 13.03C7.21982 12.1572 7.28313 11.3686 7.29506 11.2776C7.31637 11.1151 7.38229 11.0526 10.7229 8.0254C14.5921 4.51915 14.742 4.38044 14.742 4.30588C14.742 4.21478 14.5609 4.15655 14.4156 4.20091C14.3451 4.22238 12.2193 5.53006 9.69136 7.10688C7.1635 8.68367 5.08056 9.97379 5.06262 9.97379C5.04467 9.97379 4.45622 9.79716 3.75501 9.58122C3.05377 9.36532 2.12232 9.08168 1.68511 8.95089C1.2479 8.82014 0.834483 8.67924 0.766429 8.63782C0.494492 8.47239 0.508206 8.16614 0.798599 7.91968C0.893052 7.83952 1.14586 7.70974 1.41819 7.60156Z" fill="currentColor"/>
</g>
<defs>
<clipPath id="clip0_516_14235">
<rect width="17.1429" height="17.1429" fill="white" transform="translate(0.571289 0.289185)"/>
</clipPath>
</defs>
</svg>
