<svg width="642" height="114" viewBox="0 0 642 114" fill="none" xmlns="http://www.w3.org/2000/svg">
<path d="M200.395 82.0197L175.255 0.00292969H45.3691L20.2293 82.0197H0V113.862H144.753L136.469 82.0197H52.9004L67.5716 31.8456H153.249L167.92 82.0197L175.496 113.862H220.504V82.0197H200.395Z" fill="white"/>
<path d="M393.527 0H263.641L228.861 113.859H261.864L268.039 92.7113H357.121L348.821 60.7632H277.363L285.844 31.8427H371.536L379.037 57.4193L379.142 57.7657L380.016 60.7632H380.001L393.03 105.846L395.41 113.859H428.413L393.527 0Z" fill="white"/>
<path d="M641.31 56.877C641.31 113.754 615.854 113.754 584.433 113.754H495.081C463.66 113.754 438.204 113.754 438.204 56.877C438.204 0 463.66 0 495.081 0H584.539C615.96 0 641.31 0 641.31 56.877ZM609.89 56.9824C609.89 31.9481 598.683 31.9481 584.855 31.9481H495.081C481.253 31.9481 470.047 31.9481 470.047 56.9824C470.047 82.0168 481.253 82.0168 495.081 82.0168H584.855C598.683 82.0168 609.89 82.0168 609.89 56.9824Z" fill="white"/>
<rect x="538.03" y="40.7446" width="57.0399" height="32.5942" rx="3.71811" fill="white"/>
</svg>
