<svg width="24" height="24" viewBox="0 0 24 24" fill="none" xmlns="http://www.w3.org/2000/svg">
<g clip-path="url(#clip0_186_851)">
<path d="M20.9444 10.8889H3.05556C2.47259 10.8889 2 11.3614 2 11.9444V12.0555C2 12.6385 2.47259 13.1111 3.05556 13.1111H20.9444C21.5274 13.1111 22 12.6385 22 12.0555V11.9444C22 11.3614 21.5274 10.8889 20.9444 10.8889Z" fill="#242730"/>
<path d="M20.9444 17H3.05556C2.47259 17 2 17.4726 2 18.0556V18.1667C2 18.7496 2.47259 19.2222 3.05556 19.2222H20.9444C21.5274 19.2222 22 18.7496 22 18.1667V18.0556C22 17.4726 21.5274 17 20.9444 17Z" fill="#242730"/>
<path d="M20.9444 4.77777H3.05556C2.47259 4.77777 2 5.25036 2 5.83333V5.94444C2 6.52741 2.47259 6.99999 3.05556 6.99999H20.9444C21.5274 6.99999 22 6.52741 22 5.94444V5.83333C22 5.25036 21.5274 4.77777 20.9444 4.77777Z" fill="#242730"/>
</g>
<defs>
<clipPath id="clip0_186_851">
<rect width="24" height="24" fill="white"/>
</clipPath>
</defs>
</svg>
