<svg width="24" height="24" viewBox="0 0 24 24" fill="none" xmlns="http://www.w3.org/2000/svg">
<g clip-path="url(#clip0_186_3409)">
<path d="M20.9444 10.8889H3.05556C2.47259 10.8889 2 11.3615 2 11.9444V12.0555C2 12.6385 2.47259 13.1111 3.05556 13.1111H20.9444C21.5274 13.1111 22 12.6385 22 12.0555V11.9444C22 11.3615 21.5274 10.8889 20.9444 10.8889Z" fill="#F2F5F9"/>
<path d="M20.9444 17H3.05556C2.47259 17 2 17.4726 2 18.0555V18.1666C2 18.7496 2.47259 19.2222 3.05556 19.2222H20.9444C21.5274 19.2222 22 18.7496 22 18.1666V18.0555C22 17.4726 21.5274 17 20.9444 17Z" fill="#F2F5F9"/>
<path d="M20.9444 4.77775H3.05556C2.47259 4.77775 2 5.25034 2 5.8333V5.94442C2 6.52738 2.47259 6.99997 3.05556 6.99997H20.9444C21.5274 6.99997 22 6.52738 22 5.94442V5.8333C22 5.25034 21.5274 4.77775 20.9444 4.77775Z" fill="#F2F5F9"/>
</g>
<defs>
<clipPath id="clip0_186_3409">
<rect width="24" height="24" fill="white"/>
</clipPath>
</defs>
</svg>
