<svg width="24" height="24" viewBox="0 0 24 24" fill="none" xmlns="http://www.w3.org/2000/svg">
<g id="arrows/chevron-circle-down">
<path id="Vector" fill-rule="evenodd" clip-rule="evenodd" d="M2 12C2 6.47715 6.47715 2 12 2C17.5228 2 22 6.47715 22 12C22 17.5228 17.5228 22 12 22C6.47715 22 2 17.5228 2 12ZM16.6585 12.2474C17.0741 12.6111 17.1163 13.2429 16.7526 13.6585C16.3889 14.0741 15.7571 14.1162 15.3415 13.7526L12 10.8288L8.65851 13.7526C8.24287 14.1162 7.61111 14.0741 7.24743 13.6585C6.88374 13.2429 6.92586 12.6111 7.3415 12.2474L12 8.17122L16.6585 12.2474Z" fill="#9FAEC0"/>
</g>
</svg>
