<svg width="77" height="100" viewBox="0 0 77 100" fill="none" xmlns="http://www.w3.org/2000/svg">
<g id="&#208;&#146;&#208;&#181;&#209;&#129;&#209;&#139;">
<g id="&#208;&#146;&#208;&#181;&#209;&#129;&#209;&#139;_2">
<path d="M94.8638 88.7427L92.2349 76.4549C91.9347 75.0826 91.1758 73.8537 90.0833 72.9707C88.9907 72.0878 87.6299 71.6036 86.2252 71.5981H77.6557V68.527H82.2652C85.1152 68.5229 87.8473 67.3887 89.8624 65.3732C91.8775 63.3577 93.0111 60.6253 93.0146 57.7753C93.0146 57.3679 92.8528 56.9771 92.5647 56.6891C92.2767 56.401 91.8859 56.2391 91.4785 56.2391H71.8231C75.0061 54.3291 77.6405 51.6278 79.4703 48.3981C81.3001 45.1683 82.263 41.52 82.2652 37.808V33.2018C82.2652 32.7944 82.1033 32.4037 81.8153 32.1156C81.5272 31.8275 81.1365 31.6657 80.729 31.6657H77.5309C77.6165 31.1581 77.6598 30.6443 77.6602 30.1296C77.6622 27.9919 76.9176 25.9206 75.5548 24.2736C76.2222 23.1492 76.7051 21.925 76.9851 20.6478C77.1113 20.5618 77.224 20.4574 77.3193 20.3381L78.9791 18.2651C79.6717 17.3989 80.1685 16.3929 80.4352 15.3164C80.7019 14.2398 80.7323 13.1183 80.5242 12.0289C80.3161 10.9396 79.8744 9.90819 79.2296 9.0058C78.5848 8.10341 77.7522 7.35141 76.7891 6.80154L72.272 4.22166C72.084 4.11436 71.8755 4.04798 71.66 4.02688C71.4445 4.00577 71.227 4.03041 71.0218 4.09919C70.8165 4.16796 70.6281 4.27932 70.4688 4.42597C70.3096 4.57262 70.1831 4.75125 70.0976 4.95017L68.1193 9.5641C67.7009 10.5406 67.4896 11.5932 67.4988 12.6555C67.5081 13.7178 67.7376 14.7666 68.1729 15.7357C68.6082 16.7047 69.2398 17.5729 70.0279 18.2853C70.8159 18.9978 71.7432 19.539 72.751 19.8747L73.9118 20.2612C73.7409 20.9421 73.4923 21.601 73.171 22.2251C71.2123 21.0492 68.8864 20.6436 66.6453 21.0871C64.4042 21.5305 62.408 22.7913 61.0447 24.6245C59.7728 24.1231 58.4049 23.912 57.041 24.0069C55.6771 24.1017 54.3516 24.4999 53.1613 25.1726C52.6523 24.3724 52.0225 23.6559 51.2944 23.0483C51.4333 22.0585 51.4747 21.0575 51.418 20.0596L52.2969 18.9613C53.0364 18.0374 53.5524 16.9552 53.8045 15.799C54.0566 14.6428 54.0381 13.4439 53.7504 12.2961C53.4627 11.1482 52.9136 10.0824 52.1459 9.18186C51.3782 8.28129 50.4128 7.57034 49.325 7.10453L45.9954 5.67646C45.6658 5.53492 45.297 5.51312 44.953 5.61484C44.609 5.71656 44.3114 5.93539 44.1117 6.23343L42.6358 8.44571C41.9649 9.45166 41.541 10.6018 41.3987 11.8026C41.2564 13.0034 41.3998 14.2207 41.817 15.3556C42.2342 16.4905 42.9136 17.5108 43.7998 18.3335C44.686 19.1561 45.7539 19.7579 46.9166 20.0897L48.3647 20.503C48.3748 20.8015 48.3759 21.1 48.3647 21.3941C46.6397 20.8079 44.7797 20.745 43.019 21.2134C41.2583 21.6818 39.6755 22.6605 38.4696 24.0263C37.638 23.0807 36.6209 22.3159 35.4816 21.7794C34.3423 21.2429 33.1049 20.9461 31.8462 20.9073L34.9563 19.3478C36.2278 18.7169 37.2985 17.7445 38.0484 16.5394C38.7984 15.3344 39.1981 13.9443 39.2026 12.5249L39.2438 5.54502C39.2453 5.29628 39.1863 5.05091 39.0719 4.83001C38.9576 4.6091 38.7913 4.41927 38.5874 4.27682C38.3835 4.13438 38.148 4.04358 37.9013 4.01224C37.6545 3.9809 37.4038 4.00995 37.1708 4.0969L30.1374 6.72022C28.3275 7.40288 26.84 8.74031 25.9694 10.4677C25.0988 12.195 24.9087 14.1863 25.4366 16.0472L26.8357 20.9418C26.2594 20.5029 25.6531 20.105 25.0211 19.751L24.6045 18.6371C24.0451 17.1451 23.1612 15.7959 22.0167 14.6873C20.8722 13.5786 19.4957 12.738 17.9866 12.2264C16.4776 11.7147 14.8737 11.5447 13.2909 11.7287C11.7081 11.9127 10.1859 12.4461 8.83448 13.2902L6.10199 14.9979C5.77841 15.2009 5.54207 15.5172 5.43909 15.885C5.33611 16.2529 5.37388 16.6459 5.54503 16.9874L6.86616 19.6285C7.56118 21.0186 8.54925 22.2416 9.76234 23.2132C10.9754 24.1847 12.3847 24.8818 13.8931 25.2564C15.4014 25.6309 16.9731 25.6741 18.4997 25.3829C20.0264 25.0917 21.4718 24.4731 22.7364 23.5696L23.9706 22.6885C24.3795 22.941 24.7734 23.217 25.1503 23.515C24.2632 24.372 23.5577 25.3988 23.076 26.5343C22.5943 27.6697 22.3462 28.8906 22.3465 30.124C22.3469 30.6388 22.3901 31.1526 22.4757 31.6601H19.2721C19.0698 31.66 18.8694 31.6998 18.6826 31.7773C18.4957 31.8548 18.326 31.9684 18.1832 32.1116C18.0403 32.2549 17.9272 32.4249 17.8503 32.612C17.7733 32.7991 17.7341 32.9995 17.7348 33.2018V37.8102C17.737 41.5222 18.6999 45.1706 20.5297 48.4003C22.3595 51.6301 24.9939 54.3313 28.1769 56.2414H8.51701C8.1096 56.2414 7.71889 56.4032 7.43081 56.6913C7.14273 56.9794 6.98089 57.3701 6.98089 57.7775C6.98443 60.6285 8.11879 63.3617 10.1351 65.3774C12.1514 67.393 14.8849 68.5266 17.7359 68.5292H22.3454V71.6014H13.7792C12.3746 71.607 11.0137 72.0912 9.9212 72.9741C8.82868 73.857 8.06974 75.086 7.76956 76.4582L5.13621 88.7427C4.94446 89.6382 4.95529 90.5652 5.16791 91.4559C5.38053 92.3466 5.78956 93.1786 6.3651 93.8909C6.94063 94.6032 7.6681 95.1779 8.49431 95.5729C9.32052 95.9678 10.2246 96.1731 11.1403 96.1738H88.8541C89.7703 96.174 90.675 95.9693 91.5019 95.5747C92.3288 95.18 93.057 94.6055 93.6332 93.8931C94.2093 93.1807 94.6188 92.3484 94.8318 91.4573C95.0447 90.5661 95.0556 89.6386 94.8638 88.7427ZM47.7621 17.14C47.0644 16.9409 46.4236 16.5798 45.8919 16.0862C45.3602 15.5926 44.9526 14.9804 44.7022 14.2995C44.4518 13.6185 44.3658 12.8881 44.4512 12.1676C44.5365 11.4471 44.7908 10.757 45.1934 10.1534L45.9598 9.00379L48.1163 9.92836C49.219 10.4013 50.094 11.2853 50.5555 12.3928C51.017 13.5003 51.0287 14.7441 50.5882 15.8601C50.3758 15.2505 50.1246 14.6552 49.8363 14.0778L47.0882 15.4513C47.3594 15.9961 47.5891 16.5606 47.7755 17.14H47.7621ZM70.9754 14.4754C70.7112 13.8949 70.5718 13.2653 70.5662 12.6275C70.5607 11.9897 70.6891 11.3578 70.9431 10.7727L72.2431 7.7417L75.2641 9.46719C76.3104 10.0646 77.0809 11.0482 77.4103 12.2071C77.7397 13.366 77.6019 14.6078 77.0263 15.6662C76.8103 14.5835 76.4503 13.5345 75.9558 12.5472L73.2089 13.9196C73.7073 14.914 74.0221 15.9902 74.1379 17.0965L73.7235 16.9584C73.1174 16.7595 72.5597 16.4357 72.0865 16.0078C71.6133 15.5799 71.2352 15.0575 70.9765 14.4743L70.9754 14.4754ZM68.4368 23.984C69.3742 23.9848 70.2991 24.1999 71.1407 24.6128C71.9824 25.0258 72.7184 25.6257 73.2927 26.3666C73.867 27.1076 74.2643 27.9701 74.4542 28.8881C74.6441 29.8062 74.6217 30.7555 74.3885 31.6635H62.485C62.2519 30.7555 62.2294 29.8062 62.4193 28.8881C62.6092 27.9701 63.0065 27.1076 63.5808 26.3666C64.1551 25.6257 64.8912 25.0258 65.7328 24.6128C66.5744 24.1999 67.4993 23.9848 68.4368 23.984ZM59.6367 27.3759C59.3577 28.2664 59.2161 29.1942 59.2167 30.1274C59.2171 30.6421 59.2603 31.1559 59.3459 31.6635H51.7311C51.9421 30.8462 52.3192 30.0811 52.839 29.416C53.3588 28.7509 54.01 28.2001 54.7521 27.7978C55.4941 27.3955 56.3111 27.1504 57.1521 27.0778C57.9931 27.0053 58.84 27.1067 59.64 27.3759H59.6367ZM45.3894 23.984C46.4826 23.983 47.5562 24.2743 48.499 24.8276C49.4418 25.3808 50.2196 26.176 50.7519 27.1309C49.6253 28.4119 48.8778 29.9814 48.5931 31.6635H40.6507C40.7364 31.1559 40.7796 30.6421 40.7799 30.1274C40.7807 29.0125 40.578 27.9068 40.1818 26.8646C40.7342 25.9819 41.5022 25.2543 42.4134 24.7504C43.3247 24.2464 44.3481 23.9827 45.3894 23.984ZM31.2101 9.61423L36.1593 7.77066L36.1315 12.5238C36.1288 13.3754 35.8891 14.2095 35.4391 14.9325C34.9892 15.6555 34.3468 16.239 33.5839 16.6175L31.5209 17.6491C31.7457 17.218 31.9933 16.7993 32.2628 16.3948L32.7785 15.6206L30.2165 13.9162L29.7007 14.6904C29.3424 15.228 29.0154 15.7859 28.7216 16.3613L28.3874 15.1928C28.0744 14.0781 28.1904 12.8865 28.7125 11.8531C29.2346 10.8196 30.1249 10.0193 31.2079 9.60977L31.2101 9.61423ZM14.6303 22.2775C13.5528 22.0107 12.546 21.5134 11.6794 20.8197C10.8128 20.126 10.107 19.2525 9.61089 18.2595L8.91468 16.8671L10.4619 15.9002C12.1588 14.8408 14.2018 14.4848 16.157 14.9077C18.1122 15.3305 19.8255 16.499 20.9329 18.1648C20.7725 18.128 20.6121 18.0913 20.4506 18.0534L19.506 17.8652L18.9033 20.8728L19.848 21.061C20.1231 21.1156 20.3938 21.1813 20.6623 21.2537C19.7799 21.8278 18.7888 22.2141 17.7506 22.3885C16.7125 22.5629 15.6496 22.5217 14.6281 22.2674L14.6303 22.2775ZM25.4165 30.1285C25.4178 29.2568 25.6046 28.3955 25.9643 27.6015C26.324 26.8076 26.8484 26.0992 27.5029 25.5235C28.1573 24.9478 28.9267 24.5178 29.76 24.2623C30.5934 24.0067 31.4715 23.9313 32.3362 24.0411C33.2009 24.1508 34.0323 24.4433 34.7753 24.899C35.5183 25.3548 36.1559 25.9633 36.6457 26.6843C37.1355 27.4053 37.4663 28.2223 37.6162 29.0809C37.766 29.9396 37.7316 30.8203 37.515 31.6646H25.6115C25.4823 31.1628 25.4161 30.6466 25.4165 30.1285ZM20.8071 37.808V34.7357H79.1918V37.808C79.1856 42.6953 77.241 47.3806 73.7846 50.8359C70.3283 54.2912 65.6424 56.2344 60.7551 56.2391H39.2449C34.3576 56.2344 29.6717 54.2912 26.2154 50.8359C22.759 47.3806 20.8144 42.6953 20.8082 37.808H20.8071ZM10.2068 59.3069H89.792C89.4351 61.0405 88.4916 62.598 87.1203 63.717C85.7491 64.8361 84.034 65.4482 82.2641 65.4503H17.7348C15.9657 65.4482 14.2514 64.8366 12.8805 63.7184C11.5095 62.6003 10.5657 61.0439 10.208 59.3114L10.2068 59.3069ZM25.4165 68.5225H74.5824V71.5948H25.4176L25.4165 68.5225ZM91.2446 91.9609C90.9572 92.3178 90.5932 92.6056 90.1797 92.803C89.7661 93.0004 89.3135 93.1024 88.8552 93.1015H11.1403C10.6819 93.1021 10.2292 93 9.81535 92.8029C9.4015 92.6057 9.03703 92.3184 8.74863 91.9621C8.46024 91.6058 8.25524 91.1894 8.14866 90.7436C8.04208 90.2977 8.03663 89.8337 8.1327 89.3854L10.766 77.0976C10.9163 76.4111 11.2962 75.7963 11.8431 75.3548C12.3899 74.9133 13.0709 74.6715 13.7737 74.6692H86.2196C86.9224 74.6715 87.6035 74.9133 88.1503 75.3548C88.6971 75.7963 89.077 76.4111 89.2273 77.0976L91.8606 89.3854C91.9575 89.8332 91.9526 90.297 91.8461 90.7426C91.7397 91.1881 91.5345 91.6041 91.2457 91.9597L91.2446 91.9609Z" fill="#F2F5F9"/>
<path d="M20.8076 77.7428C19.5926 77.7432 18.4051 78.1039 17.3951 78.7792C16.3851 79.4545 15.5981 80.4142 15.1334 81.5367C14.6688 82.6593 14.5475 83.8945 14.7848 85.0861C15.0221 86.2776 15.6073 87.372 16.4666 88.231C17.3258 89.0899 18.4205 89.6748 19.6121 89.9116C20.8037 90.1485 22.0389 90.0267 23.1613 89.5617C24.2837 89.0966 25.243 88.3092 25.918 87.299C26.5929 86.2888 26.9532 85.1011 26.9532 83.8862C26.953 83.0793 26.7939 82.2803 26.485 81.5349C26.1761 80.7895 25.7234 80.1122 25.1527 79.5417C24.582 78.9712 23.9046 78.5188 23.1591 78.2101C22.4135 77.9014 21.6145 77.7427 20.8076 77.7428ZM20.8076 86.9584C20.2 86.9582 19.6061 86.7778 19.101 86.4401C18.596 86.1024 18.2024 85.6225 17.97 85.0611C17.7376 84.4997 17.677 83.882 17.7956 83.2861C17.9143 82.6902 18.207 82.1429 18.6367 81.7134C19.0664 81.2838 19.6138 80.9913 20.2097 80.8729C20.8057 80.7544 21.4233 80.8153 21.9846 81.0479C22.546 81.2805 23.0257 81.6742 23.3632 82.1794C23.7008 82.6846 23.8809 83.2786 23.8809 83.8862C23.8809 84.2897 23.8014 84.6893 23.647 85.0621C23.4925 85.4349 23.2661 85.7737 22.9807 86.059C22.6953 86.3442 22.3565 86.5705 21.9836 86.7249C21.6107 86.8792 21.2111 86.9586 20.8076 86.9584Z" fill="#F2F5F9"/>
<path d="M79.1914 77.7428C77.9764 77.7432 76.7889 78.1039 75.7789 78.7792C74.7689 79.4545 73.9818 80.4142 73.5172 81.5367C73.0526 82.6593 72.9312 83.8945 73.1685 85.0861C73.4058 86.2776 73.9911 87.372 74.8504 88.231C75.7096 89.0899 76.8043 89.6748 77.9959 89.9116C79.1875 90.1485 80.4227 90.0267 81.5451 89.5617C82.6675 89.0966 83.6268 88.3092 84.3018 87.299C84.9767 86.2888 85.3369 85.1011 85.3369 83.8862C85.3368 83.0793 85.1777 82.2803 84.8688 81.5349C84.5599 80.7895 84.1071 80.1122 83.5365 79.5417C82.9658 78.9712 82.2884 78.5188 81.5428 78.2101C80.7973 77.9014 79.9983 77.7427 79.1914 77.7428ZM79.1914 86.9584C78.5838 86.9582 77.9899 86.7778 77.4848 86.4401C76.9797 86.1024 76.5861 85.6225 76.3538 85.0611C76.1214 84.4997 76.0607 83.882 76.1794 83.2861C76.2981 82.6902 76.5908 82.1429 77.0205 81.7134C77.4502 81.2838 77.9976 80.9913 78.5935 80.8729C79.1895 80.7544 79.8071 80.8153 80.3684 81.0479C80.9297 81.2805 81.4095 81.6742 81.747 82.1794C82.0845 82.6846 82.2647 83.2786 82.2647 83.8862C82.2647 84.2897 82.1852 84.6893 82.0308 85.0621C81.8763 85.4349 81.6499 85.7737 81.3645 86.059C81.0791 86.3442 80.7403 86.5705 80.3674 86.7249C79.9945 86.8792 79.5949 86.9586 79.1914 86.9584Z" fill="#F2F5F9"/>
<path d="M68.4373 77.7428H31.566C31.364 77.7424 31.1639 77.7818 30.9772 77.8588C30.7904 77.9358 30.6207 78.0489 30.4777 78.1915C30.3347 78.3342 30.2212 78.5037 30.1438 78.6903C30.0664 78.8769 30.0266 79.0769 30.0266 79.2789V88.4945C30.0266 88.9019 30.1884 89.2927 30.4765 89.5807C30.7646 89.8688 31.1553 90.0306 31.5627 90.0306H68.434C68.8414 90.0306 69.2321 89.8688 69.5202 89.5807C69.8083 89.2927 69.9701 88.9019 69.9701 88.4945V79.2789C69.9701 78.8721 69.8087 78.4819 69.5214 78.1939C69.234 77.9059 68.8442 77.7437 68.4373 77.7428ZM66.9012 86.9584H33.0999V80.815H66.8979L66.9012 86.9584Z" fill="#F2F5F9"/>
</g>
</g>
</svg>
