<svg width="22" height="24" viewBox="0 0 22 24" fill="none" xmlns="http://www.w3.org/2000/svg">
<path id="Vector" fill-rule="evenodd" clip-rule="evenodd" d="M8.8813 11.4175H4.29819L7.68262 14.2863L6.07113 19.8596L11 16.5171L15.9289 19.8596L14.3174 14.2863L17.7018 11.4175H13.1178L11.0013 5.25791L8.8813 11.4175ZM9.57167 1.8865C10.0456 0.510491 11.9584 0.51049 12.4323 1.8865L14.8528 8.93069H20.6029C21.907 8.93069 22.4974 10.5893 21.4955 11.4386L17.1155 15.1513L19.1185 22.0785C19.4764 23.3163 18.1183 24.3329 17.0629 23.6172L11 19.5058L4.93709 23.6172C3.88168 24.3329 2.52362 23.3163 2.88153 22.0785L4.8845 15.1513L0.504482 11.4386C-0.497368 10.5893 0.0929999 8.93069 1.39712 8.93069H7.14723L9.57167 1.8865Z" fill="white"/>
</svg>
