<svg width="24" height="24" viewBox="0 0 24 24" fill="none" xmlns="http://www.w3.org/2000/svg">
<path id="Vector" fill-rule="evenodd" clip-rule="evenodd" d="M12.8205 0.5C13.9068 0.5 14.8402 1.21238 15.0446 2.19759L15.1354 2.63568C15.4927 4.35766 17.4216 5.38599 19.2153 4.81067L19.6719 4.66424C20.6981 4.33509 21.8329 4.72522 22.376 5.59392L23.1965 6.90602C23.7397 7.77474 23.5382 8.87725 22.7163 9.53327L22.3508 9.82502C20.9143 10.9717 20.9143 13.0283 22.3508 14.175L22.7163 14.4667C23.5382 15.1227 23.7397 16.2252 23.1965 17.094L22.3761 18.4061C21.8329 19.2748 20.6981 19.6649 19.6718 19.3357L19.2154 19.1892C17.4216 18.6138 15.4927 19.6422 15.1354 21.3643L15.0446 21.8024C14.8402 22.7876 13.9068 23.5 12.8205 23.5H11.1795C10.0932 23.5 9.15983 22.7876 8.95544 21.8025L8.8645 21.3641C8.50723 19.6422 6.57822 18.6138 4.7845 19.1892L4.32824 19.3356C3.30199 19.6649 2.16713 19.2747 1.62392 18.406L0.803495 17.094C0.260297 16.2252 0.461784 15.1227 1.28363 14.4667L1.64918 14.175C3.08566 13.0282 3.08566 10.9717 1.64918 9.82507L1.28363 9.53328C0.461784 8.87725 0.260298 7.77476 0.803495 6.90606L1.62395 5.59395C2.16714 4.72523 3.30197 4.3351 4.3282 4.66427L4.7846 4.81066C6.57829 5.38599 8.50723 4.35773 8.8645 2.63579L8.95543 2.19751C9.15983 1.21234 10.0931 0.5 11.1795 0.5H12.8205ZM12 15.2857C13.9053 15.2857 15.45 13.8146 15.45 12C15.45 10.1853 13.9053 8.71428 12 8.71428C10.0946 8.71428 8.54997 10.1853 8.54997 12C8.54997 13.8146 10.0946 15.2857 12 15.2857Z" fill="white"/>
</svg>
