<svg width="30" height="30" viewBox="0 0 30 30" fill="currentColor" xmlns="http://www.w3.org/2000/svg">
<path d="M11.984 23.7733V20.7156C11.984 19.9351 12.6549 19.3023 13.4826 19.3023H16.508C16.9055 19.3023 17.2866 19.4512 17.5677 19.7163C17.8487 19.9813 18.0066 20.3408 18.0066 20.7156V23.7733C18.0041 24.0978 18.139 24.4099 18.3814 24.6402C18.6239 24.8705 18.9537 25 19.2978 25H21.3619C22.3259 25.0023 23.2513 24.6428 23.9339 24.0008C24.6164 23.3588 25 22.487 25 21.5778V12.8669C25 12.1325 24.6548 11.4358 24.0575 10.9647L17.0358 5.67587C15.8144 4.74856 14.0643 4.7785 12.8794 5.74698L6.01791 10.9647C5.39236 11.422 5.01848 12.1206 5 12.8669V21.5689C5 23.4639 6.62882 25 8.63808 25H10.655C11.3697 25 11.9505 24.4562 11.9557 23.7822L11.984 23.7733Z" fill="currentColor"/>
</svg>
