<svg width="24" height="24" viewBox="0 0 24 24" fill="currentColor" xmlns="http://www.w3.org/2000/svg">
<g id="interface/home">
<path id="image 46 (Traced)" fill-rule="evenodd" clip-rule="evenodd" d="M11.6748 1.03399C11.2276 1.15774 10.8565 1.51636 10.7209 1.95596C10.6325 2.24237 10.3553 2.57186 10.0804 2.71735C9.88418 2.82116 9.72414 2.8611 9.42962 2.8797C9.1199 2.89929 8.90723 2.96603 8.6936 3.11068C8.48733 3.25035 8.35492 3.40243 8.24589 3.62495C8.08153 3.96038 8.05914 4.27514 8.17099 4.6789C8.2985 5.13921 8.20272 5.6257 7.92094 5.94903C7.87009 6.00738 7.74827 6.12293 7.6502 6.20585C7.55215 6.28875 7.43673 6.40515 7.39371 6.46446C7.08186 6.89453 7.03446 7.41939 7.26466 7.89343C7.3275 8.02284 7.38477 8.09845 7.51634 8.22567C8.00257 8.69591 7.99999 8.69292 8.09097 8.88553C8.13917 8.98763 8.19051 9.12681 8.20505 9.19487C8.24368 9.37576 8.2201 9.75908 8.1593 9.93858C8.12068 10.0525 8.11068 10.1323 8.10971 10.3339C8.10862 10.5547 8.116 10.6085 8.16845 10.7621C8.28253 11.0962 8.51117 11.3698 8.8077 11.5269C9.01031 11.6343 9.14955 11.6696 9.46513 11.6934C9.86935 11.724 10.1133 11.8226 10.374 12.061C10.5009 12.1771 10.6439 12.4083 10.7298 12.6361C10.8929 13.0687 11.1468 13.3361 11.5403 13.4899C11.6569 13.5354 11.7349 13.5486 11.9351 13.5566C12.3037 13.5714 12.4608 13.5228 12.8379 13.2772C13.086 13.1157 13.298 13.0515 13.5837 13.0515C13.8711 13.0515 14.0887 13.1171 14.33 13.2766C14.6995 13.5208 14.864 13.5717 15.2323 13.5559C15.521 13.5435 15.6778 13.497 15.8828 13.3629C16.1356 13.1974 16.3118 12.9748 16.4246 12.6783C16.5961 12.2275 16.7806 12.006 17.1304 11.8311C17.3139 11.7393 17.3992 11.7185 17.6893 11.6951C18.1583 11.6572 18.409 11.5532 18.6713 11.2877C18.8397 11.1172 18.979 10.8663 19.0301 10.6413C19.067 10.479 19.0613 10.153 19.0191 10.0045C18.9053 9.6043 18.8991 9.361 18.9955 9.07114C19.0749 8.83263 19.152 8.71154 19.3383 8.53311C19.8546 8.0387 19.9229 7.94512 20.0052 7.61965C20.0863 7.2985 20.0511 6.9755 19.9012 6.66648C19.8399 6.54003 19.7818 6.46352 19.6511 6.33707C19.1647 5.8667 19.1674 5.86986 19.0765 5.6772C18.9171 5.33919 18.9002 5.07443 19.0096 4.62725C19.0694 4.38265 19.076 4.32615 19.0647 4.152C19.0319 3.64639 18.7611 3.23349 18.3235 3.02168C18.1215 2.92393 18.0098 2.89699 17.7269 2.87779C17.4393 2.85829 17.3299 2.83207 17.1304 2.7349C16.8097 2.57869 16.5989 2.33533 16.446 1.94483C16.3332 1.6569 16.2511 1.52841 16.0707 1.35804C15.9108 1.20696 15.6484 1.06518 15.4536 1.02462C15.1524 0.961898 14.7609 1.0224 14.5277 1.16769C14.4619 1.20869 14.3525 1.27683 14.2846 1.31909C13.8508 1.5892 13.3131 1.59001 12.8891 1.32124C12.4603 1.04945 12.3808 1.02009 12.0435 1.00911C11.867 1.00336 11.7592 1.01063 11.6748 1.03399ZM15.2193 5.69751C15.3818 5.7785 15.4973 5.89937 15.5759 6.07091C15.6217 6.17094 15.6325 6.22771 15.633 6.37047C15.6341 6.69217 15.6414 6.68275 14.512 7.82388C13.3852 8.96235 13.4146 8.93938 13.0848 8.93938C12.7847 8.93938 12.7289 8.90339 12.1895 8.36235C11.94 8.11204 11.707 7.86534 11.6719 7.81415C11.5789 7.67874 11.5412 7.5542 11.5407 7.38019C11.5396 7.03097 11.7644 6.74184 12.1052 6.65431C12.3903 6.58107 12.6052 6.66052 12.893 6.94564L13.0858 7.13665L13.774 6.44279C14.1525 6.06116 14.4964 5.73136 14.5382 5.7099C14.7711 5.59015 14.9957 5.58606 15.2193 5.69751ZM20.2977 13.0046C20.1253 13.0468 19.8894 13.1668 19.7524 13.282C19.6914 13.3334 19.1263 13.9634 18.4966 14.682C17.8669 15.4007 17.3287 16.0141 17.3004 16.0451C17.2599 16.0897 17.2441 16.1428 17.2254 16.2977C17.1367 17.0322 16.7266 17.6849 16.107 18.0776C15.9276 18.1913 15.6601 18.3063 15.4142 18.3755C15.2473 18.4224 15.2071 18.4237 13.7464 18.4316C12.6455 18.4376 12.2255 18.4329 12.1583 18.4139C11.9545 18.3564 11.8049 18.1492 11.8049 17.9245C11.8049 17.7746 11.8475 17.6618 11.9416 17.5625C12.0884 17.4076 11.9843 17.4174 13.6162 17.4037C14.9423 17.3926 15.1045 17.3874 15.2215 17.3524C15.6821 17.2146 16.056 16.8311 16.1763 16.373C16.2181 16.2136 16.217 15.8968 16.1741 15.7283C16.0849 15.3784 15.8041 15.0257 15.4926 14.8725C15.18 14.7188 15.308 14.726 12.8876 14.726H10.7039L10.2294 14.5598C9.46504 14.292 9.06426 14.2153 8.43177 14.2157C7.33575 14.2164 6.31287 14.5821 5.44908 15.2819C5.29875 15.4037 2 18.7169 2 18.7461C2 18.7662 6.2981 22.9933 6.32532 23C6.33851 23.0032 6.61769 22.7339 6.9457 22.4016L7.54209 21.7972L10.1887 21.7957C13.4215 21.7938 14.8138 21.773 15.0913 21.7224C15.7181 21.6081 16.3101 21.3154 16.7546 20.9001C16.8855 20.7779 21.3924 15.5888 21.7011 15.2048C21.8976 14.9606 22.0005 14.6622 22 14.3385C21.9996 14.1042 21.9592 13.9183 21.8671 13.727C21.6903 13.36 21.3638 13.0949 20.9742 13.0019C20.8053 12.9615 20.468 12.9629 20.2977 13.0046Z" fill="currentColor"/>
</g>
</svg>
