<svg width="36" height="26" viewBox="0 0 36 26" fill="none" xmlns="http://www.w3.org/2000/svg">
<g id="Group 6814">
<path id="Vector" d="M30.1355 25.9322C29.9154 25.9322 29.7073 25.8444 29.5492 25.6857C29.2005 25.3347 29.2189 24.841 29.5944 24.4571C31.5813 22.4284 32.9327 20.1591 33.6111 17.7124C34.4489 14.6899 34.5461 11.8007 33.9002 9.12515C33.2533 6.44562 31.8456 3.91714 29.716 1.6104C29.4199 1.28953 29.2678 1.05607 29.313 0.740891C29.3643 0.383173 29.5539 0.149719 29.8772 0.0468918C29.9753 0.0157423 30.0708 0 30.1619 0C30.3937 0 30.6041 0.0994777 30.8048 0.304462C32.0929 1.61743 33.1558 3.07008 33.9649 4.62152C35.0834 6.76683 35.7461 9.04744 35.934 11.4001C35.9414 11.4912 35.9638 11.5752 35.9836 11.6496C35.9893 11.6707 35.995 11.6918 36 11.7129V14.231C35.9705 14.4367 35.9427 14.6457 35.9156 14.8476C35.856 15.2931 35.7946 15.7536 35.7136 16.2001C35.3843 18.0135 34.7987 19.7314 33.9736 21.3056C33.1562 22.8651 32.0801 24.3275 30.776 25.6528C30.5984 25.8334 30.371 25.9329 30.1355 25.9329V25.9322Z" fill="currentColor"/>
<path id="Vector_2" d="M5.91446 25.9299C5.84076 25.9299 5.76639 25.9192 5.69336 25.8977C5.52184 25.8475 5.3473 25.744 5.22637 25.6211C3.92287 24.296 2.84986 22.838 2.03782 21.2876C1.21304 19.7134 0.634494 18.0008 0.317917 16.1971C0.181571 15.4194 0.108541 14.6139 0.0552753 14.0254C0.0351752 13.8033 0.0177551 13.6111 0 13.4506C0.0408702 10.7574 0.478048 8.39367 1.33632 6.22459C2.18622 4.07695 3.43075 2.16644 5.14127 0.383544C5.39755 0.116596 5.61329 0.00238037 5.8622 0.00238037C5.88062 0.00238037 5.89905 0.00305025 5.91781 0.00439002C6.28028 0.0291757 6.51981 0.196982 6.65012 0.516851C6.79149 0.864185 6.72952 1.16697 6.46018 1.4433C5.50643 2.42133 4.73458 3.4017 4.10042 4.44002C2.85288 6.4825 2.0874 8.69713 1.82442 11.022C1.58824 13.1107 1.71454 15.1317 2.19996 17.0285C2.68772 18.935 3.55035 20.7654 4.7644 22.4693C5.13055 22.9831 5.55567 23.4604 5.96672 23.9216C6.13389 24.1091 6.30675 24.3031 6.47224 24.4957C6.67123 24.7274 6.8528 25.0955 6.58949 25.5343C6.44075 25.7822 6.18816 25.9302 5.91412 25.9302L5.91446 25.9299Z" fill="currentColor"/>
<path id="Vector_3" d="M18.0127 17.23C16.871 17.23 15.8004 16.7889 14.9977 15.9881C14.195 15.1872 13.7515 14.1168 13.7485 12.9746C13.7455 11.8314 14.187 10.7576 14.9913 9.95109C15.7947 9.14555 16.8653 8.70209 18.006 8.70209H18.0285C19.1728 8.70812 20.2428 9.15359 21.0415 9.95678C21.8401 10.76 22.2786 11.8314 22.2759 12.9736C22.2733 14.1157 21.8301 15.1859 21.0271 15.9874C20.2244 16.7886 19.1537 17.23 18.0124 17.23H18.0127ZM18.0201 10.3805C16.594 10.3805 15.4305 11.5333 15.4262 12.9502C15.4218 14.3804 16.5752 15.5476 17.997 15.552H18.005C19.4308 15.552 20.5942 14.3988 20.5986 12.9813C20.6009 12.2896 20.3346 11.6379 19.8492 11.1465C19.3634 10.6545 18.7166 10.3825 18.0281 10.3805H18.0201Z" fill="currentColor"/>
<path id="Vector_4" d="M9.12978 22.7C8.89059 22.7 8.65508 22.5942 8.4658 22.4016C6.83702 20.7456 5.69802 18.7879 5.0796 16.5833C4.75164 15.4137 4.59285 14.1992 4.58012 12.7613C4.61027 11.038 4.9446 9.39212 5.57373 7.86914C6.21627 6.31334 7.1737 4.86941 8.4189 3.57787C8.6333 3.35547 8.88992 3.23322 9.14184 3.23322C9.34619 3.23322 9.53781 3.3136 9.69593 3.46566C9.85941 3.62275 9.94752 3.81735 9.9512 4.0287C9.95522 4.27522 9.84166 4.52977 9.63161 4.74514C7.84404 6.57794 6.76232 8.73162 6.41626 11.1465C5.88461 14.8564 6.88225 18.1458 9.38103 20.9235C9.43429 20.9824 9.4889 21.0384 9.54216 21.0923C9.58973 21.1405 9.63462 21.1861 9.67751 21.2333C10.0306 21.6205 10.0383 22.1393 9.6956 22.4672C9.53647 22.6196 9.34083 22.7 9.13011 22.7H9.12978Z" fill="currentColor"/>
<path id="Vector_5" d="M26.9148 22.703C26.7946 22.703 26.6723 22.6739 26.5514 22.617C26.1594 22.4317 26.0375 22.0743 26.0904 21.8024C26.1333 21.5827 26.2552 21.3462 26.409 21.1854C28.0602 19.4578 29.1034 17.4803 29.5091 15.3082C30.2384 11.4044 29.2645 7.92842 26.6147 4.97624C26.5651 4.92098 26.5138 4.86873 26.4643 4.81849C26.4137 4.76724 26.3658 4.71867 26.3212 4.66843C25.9869 4.29129 25.9922 3.78318 26.3346 3.4603C26.4921 3.31192 26.6937 3.22986 26.9021 3.22986C27.1349 3.22986 27.3611 3.32967 27.5393 3.51054C29.3778 5.37817 30.5704 7.54927 31.0843 9.96386C31.238 10.6863 31.3272 11.4353 31.3921 11.9822C31.4159 12.1818 31.4367 12.3553 31.4568 12.4994C31.3794 16.593 30.1456 19.7351 27.5755 22.3858C27.3745 22.5932 27.1463 22.7027 26.9152 22.7027L26.9148 22.703Z" fill="currentColor"/>
<path id="Vector_6" d="M12.3396 19.4702C12.1209 19.4702 11.9118 19.376 11.7349 19.1982C10.5621 18.0189 9.78623 16.6376 9.42879 15.0931C9.31154 14.586 9.24521 14.0532 9.19663 13.664C9.17888 13.5206 9.16313 13.3957 9.14772 13.2898C9.20333 10.5801 10.01 8.51255 11.685 6.78492C11.8864 6.57692 12.1299 6.46271 12.3704 6.46271C12.5771 6.46271 12.7724 6.54577 12.9346 6.7032C13.2816 7.03948 13.2713 7.55696 12.9098 7.93344C11.4224 9.48288 10.737 11.3482 10.8723 13.4767C10.9772 15.1216 11.6184 16.598 12.7781 17.8655C12.9718 18.0771 13.093 18.26 13.1486 18.4248C13.2646 18.7678 13.1138 19.1449 12.7818 19.3419C12.6381 19.4273 12.489 19.4705 12.3393 19.4705L12.3396 19.4702Z" fill="currentColor"/>
<path id="Vector_7" d="M23.6457 19.4715C23.4457 19.4715 23.2538 19.3874 23.091 19.2283C22.7309 18.8763 22.76 18.3719 23.1647 17.9435C24.4682 16.5635 25.1861 14.7961 25.1864 12.9666C25.1864 11.1365 24.4685 9.37001 23.164 7.99273C22.8598 7.67152 22.7747 7.37442 22.888 7.02977C22.9911 6.71626 23.2109 6.53539 23.56 6.47711C23.6092 6.46874 23.6585 6.46472 23.7054 6.46472C23.9144 6.46472 24.1023 6.54712 24.2645 6.70923C25.6005 8.04632 26.4333 9.66408 26.7402 11.5177C26.7968 11.8593 26.8259 12.211 26.849 12.4937C26.8577 12.6002 26.8661 12.7013 26.8748 12.7884C26.8219 15.334 26.0085 17.3982 24.3884 19.0994C24.1596 19.3395 23.896 19.4718 23.6454 19.4718L23.6457 19.4715Z" fill="currentColor"/>
</g>
</svg>
