<svg width="30" height="36" viewBox="0 0 30 36" fill="none" xmlns="http://www.w3.org/2000/svg">
<g id="Group 6816">
<path id="Vector" d="M14.7592 27.5777C12.0737 27.4437 9.38826 27.36 6.71101 27.1507C4.59221 26.9833 2.71156 26.1628 1.30723 24.4549C0.239618 23.1656 -0.0478171 21.6753 0.305317 20.0512C0.510628 19.1051 1.06907 18.3516 1.82462 17.8074C2.59659 17.2549 3.42604 16.7777 4.27192 16.3591C5.80764 15.5972 6.89169 14.467 7.35979 12.7758C7.53225 12.1647 7.64723 11.5367 7.7622 10.9088C7.85254 10.3981 7.91824 9.87907 7.97573 9.36C8.04964 8.67349 8.37813 8.15442 8.92015 7.77767C9.13368 7.63535 9.20759 7.47628 9.19116 7.23349C9.17474 7.01581 9.19116 6.78977 9.19116 6.57209C9.22401 5.76 9.61821 5.17395 10.2998 4.76372C10.423 4.68837 10.5626 4.49581 10.5544 4.36186C10.538 3.6 10.6201 2.89674 11.3018 2.41953C11.3592 2.37767 11.3675 2.26046 11.3757 2.17674C11.3839 1.99256 11.3757 1.80837 11.3757 1.63256C11.4003 0.644651 12.0245 0 12.9771 0C14.1843 0 15.3833 0 16.5906 0C17.535 0 18.1674 0.611163 18.192 1.57395C18.2002 2.03442 18.2248 2.42791 18.6272 2.77116C19.0543 3.13116 19.0461 3.70047 19.0132 4.22791C18.9968 4.51256 19.0871 4.66326 19.3417 4.80558C20.0151 5.1907 20.3765 5.79349 20.3929 6.58884C20.3929 6.6893 20.4093 6.79814 20.3929 6.8986C20.3436 7.32558 20.4422 7.64372 20.8364 7.91163C21.3209 8.24651 21.5344 8.77395 21.6248 9.37674C21.789 10.4735 21.9533 11.5702 22.2079 12.6419C22.6185 14.3414 23.6943 15.5051 25.2218 16.2921C26.0595 16.7274 26.9054 17.1795 27.6691 17.7405C29.9932 19.4316 29.7961 22.5712 28.4082 24.346C27.2503 25.8447 25.6817 26.6819 23.8832 26.9916C22.5117 27.226 21.1074 27.3098 19.7195 27.3851C18.0688 27.4688 16.4181 27.4772 14.7674 27.5191V27.586L14.7592 27.5777ZM1.43042 20.8214H28.1619C28.129 20.6372 28.1208 20.4698 28.0715 20.3107C27.8909 19.6744 27.4967 19.1553 26.9793 18.7953C26.3141 18.3349 25.6242 17.9079 24.9015 17.5479C23.0537 16.6437 21.6741 15.3209 21.1074 13.2865C20.8035 12.1981 20.6229 11.0763 20.4586 9.95442C20.3108 8.94977 19.8755 8.4893 18.8572 8.44744C18.7176 8.44744 18.578 8.44744 18.4384 8.44744C16.0075 8.44744 13.5766 8.44744 11.1375 8.44744C10.9815 8.44744 10.8337 8.44744 10.6776 8.44744C9.70855 8.49767 9.25686 8.94139 9.1501 9.9293C9.09262 10.4567 9.01049 10.9926 8.92015 11.52C8.66557 12.9684 8.27137 14.3665 7.34337 15.5386C6.51391 16.5851 5.41345 17.2214 4.23086 17.7572C3.4014 18.1256 2.64586 18.6112 2.05456 19.3228C1.70143 19.7498 1.45506 20.227 1.43042 20.8214ZM28.1044 22.1274H1.49612C1.66858 22.9898 2.12026 23.6344 2.71977 24.187C4.02555 25.3926 5.61876 25.8614 7.32694 25.9786C12.5172 26.347 17.7075 26.3805 22.8977 25.9033C24.532 25.7526 26.0102 25.1665 27.1764 23.9274C27.6527 23.4251 27.9976 22.8391 28.1208 22.1191L28.1044 22.1274ZM19.1364 7.16651C19.2268 6.06977 18.964 5.76837 17.9456 5.76837C15.8186 5.76837 13.6998 5.76837 11.5728 5.76837C10.6201 5.76837 10.2916 6.17861 10.4559 7.16651H19.1364ZM11.8109 4.48744H17.7567C17.7649 4.3786 17.7814 4.28651 17.7814 4.19442C17.7978 3.46605 17.6992 3.35721 16.9683 3.35721C16.4181 3.35721 15.8679 3.35721 15.3176 3.35721C14.3568 3.35721 13.3959 3.35721 12.4351 3.35721C12.1312 3.35721 11.852 3.40744 11.8027 3.77581C11.7699 4.00186 11.8027 4.23628 11.8027 4.47907L11.8109 4.48744ZM16.9108 2.09302C17.0751 1.52372 16.9683 1.24744 16.5659 1.24744C15.3751 1.24744 14.1843 1.24744 12.9935 1.24744C12.7307 1.24744 12.6157 1.37302 12.6157 1.62419C12.6157 1.77488 12.6157 1.92558 12.6157 2.09302H16.9108Z" fill="currentColor"/>
<path id="Vector_2" d="M11.0551 30.1396C10.8416 31.655 10.628 33.1368 10.4227 34.6187C10.3899 34.8782 10.3488 35.1378 10.3078 35.3889C10.2421 35.7824 9.96283 36.0336 9.63434 35.9917C9.2812 35.9499 9.03483 35.6233 9.09232 35.2299C9.33869 33.4968 9.58506 31.7722 9.83965 30.0475C9.89713 29.6457 10.1846 29.4113 10.5213 29.4699C10.8498 29.5201 11.0797 29.8131 11.0551 30.1396Z" fill="currentColor"/>
<path id="Vector_3" d="M20.9017 35.2967C20.9017 35.6735 20.6718 35.9665 20.3433 36C20.0394 36.0335 19.7438 35.8074 19.6863 35.4642C19.4235 33.6977 19.1771 31.9395 18.9308 30.173C18.8815 29.8046 19.1443 29.4949 19.4892 29.4614C19.8095 29.4279 20.0887 29.6456 20.1462 30.0307C20.3844 31.6298 20.6061 33.2205 20.836 34.8195C20.8607 34.987 20.8853 35.1544 20.9017 35.2967Z" fill="currentColor"/>
<path id="Vector_4" d="M14.1436 32.7016C14.1436 31.8644 14.1436 31.0356 14.1436 30.1983C14.1436 29.7463 14.3981 29.4532 14.7595 29.4616C15.1126 29.4616 15.359 29.7546 15.3672 30.1816C15.3672 31.8811 15.3672 33.5723 15.3672 35.2718C15.3672 35.7156 15.1044 36.0169 14.7431 36.0086C14.3735 36.0002 14.1518 35.7156 14.1436 35.2551C14.1436 34.4095 14.1436 33.5556 14.1436 32.71V32.7016Z" fill="currentColor"/>
<path id="Vector_5" d="M7.39297 29.2857C7.36833 29.3694 7.33548 29.5033 7.29442 29.6206C6.72776 31.1024 6.16111 32.5759 5.59445 34.0578C5.43841 34.4764 5.1674 34.6522 4.85533 34.5852C4.47756 34.5015 4.25582 34.1331 4.40365 33.7396C4.99494 32.1573 5.60266 30.5833 6.21859 29.0178C6.34178 28.6996 6.60458 28.5657 6.93307 28.6494C7.22872 28.7247 7.36833 28.9424 7.40118 29.294L7.39297 29.2857Z" fill="currentColor"/>
<path id="Vector_6" d="M23.3744 28.6158C23.4647 28.7079 23.7111 28.8503 23.7932 29.0596C24.4092 30.5917 24.9922 32.1321 25.5753 33.6726C25.7232 34.0744 25.5753 34.4093 25.2386 34.5433C24.8937 34.6772 24.5898 34.5265 24.4338 34.1079C23.8425 32.5842 23.2512 31.0521 22.6763 29.5284C22.4957 29.0512 22.7749 28.6075 23.3826 28.6158H23.3744Z" fill="currentColor"/>
<path id="Vector_7" d="M26.4294 27.5107C26.6511 27.6196 26.8154 27.6782 26.9468 27.7703C27.8502 28.4317 28.7535 29.0931 29.6487 29.7628C30.01 30.0391 30.0922 30.3991 29.8704 30.7005C29.6487 31.0019 29.2791 31.0354 28.9178 30.7675C28.0062 30.0977 27.0946 29.4196 26.183 28.7498C25.9284 28.5573 25.797 28.2893 25.9367 28.0047C26.0352 27.8121 26.2487 27.6782 26.4212 27.5107H26.4294Z" fill="currentColor"/>
<path id="Vector_8" d="M4.18197 28.2055C4.03415 28.4231 3.95203 28.6241 3.8042 28.7413C2.8762 29.4529 1.93177 30.1478 0.987339 30.8343C0.675267 31.0604 0.305708 30.9766 0.108609 30.6836C-0.0802765 30.4073 -0.0227895 30.0557 0.28107 29.8213C1.21729 29.118 2.1535 28.4148 3.10615 27.745C3.27039 27.6278 3.58247 27.6194 3.77957 27.6948C3.94381 27.7534 4.03415 28.0045 4.19019 28.2055H4.18197Z" fill="currentColor"/>
</g>
</svg>
