<svg width="36" height="36" viewBox="0 0 36 36" fill="none" xmlns="http://www.w3.org/2000/svg">
<g id="Group 6817">
<path id="Vector" d="M30.5652 32.9309C32.1202 32.9309 33.6055 32.9309 35.0921 32.9309C35.2384 32.9309 35.3929 32.9179 35.531 32.9569C35.833 33.0394 36.0123 33.2565 35.9993 33.5715C35.9864 33.8841 35.8011 34.0917 35.4897 34.1518C35.3469 34.179 35.1959 34.1624 35.0496 34.1672C32.8599 34.225 30.6631 34.1919 28.4828 34.363C25.728 34.58 22.9861 34.9634 20.2384 35.2748C18.1041 35.5167 15.9711 35.7597 13.8356 35.9956C13.3873 36.0451 13.1065 35.7962 13.0829 35.3338C13.064 34.967 13.0794 34.5989 13.0794 34.166C12.8823 34.166 12.7124 34.166 12.5414 34.166C8.69995 34.166 4.85734 34.166 1.01591 34.166C0.883774 34.166 0.750457 34.1731 0.618319 34.1624C0.252581 34.1341 -0.0211323 33.8734 0.00128392 33.5443C0.0272395 33.1668 0.249042 32.9451 0.626578 32.9345C1.19996 32.9179 1.77452 32.9286 2.34909 32.9286C3.36135 32.9286 4.37362 32.9286 5.43662 32.9286V32.3234C5.43662 22.5631 5.43662 12.8029 5.43662 3.04258C5.43662 2.91046 5.43544 2.77716 5.43662 2.64504C5.4437 2.01748 5.62893 1.82874 6.25304 1.82756C8.34365 1.8252 10.4331 1.82756 12.5237 1.82756C12.6841 1.82756 12.8446 1.82756 13.077 1.82756C13.077 1.45716 13.0711 1.11152 13.0782 0.765891C13.0912 0.176076 13.3708 -0.0551322 13.9489 0.0109272C17.7927 0.445032 21.6376 0.875597 25.4814 1.3097C26.9574 1.47603 28.4333 1.64944 29.908 1.82284C30.3823 1.87828 30.5475 2.06467 30.564 2.53888C30.5687 2.68633 30.5652 2.83379 30.5652 2.98006C30.5652 12.7545 30.5652 22.5301 30.5652 32.3045V32.9274V32.9309ZM14.3488 1.30616V34.6933C19.3524 34.1271 24.3158 33.5656 29.2981 33.0017V2.99422C24.3075 2.43035 19.3429 1.87003 14.3488 1.30498V1.30616ZM13.0428 32.9085V5.91616H9.52109V32.9073H13.0428V32.9085ZM6.70491 3.08977V32.9026H8.26106V32.3116C8.26106 24.099 8.26106 15.8852 8.26106 7.67263C8.26106 6.92239 8.25634 6.17096 8.26342 5.42072C8.26814 4.85685 8.47107 4.65986 9.04327 4.6575C9.98475 4.65396 10.9274 4.6575 11.8689 4.6575C12.2606 4.6575 12.6523 4.6575 13.0534 4.6575V3.09095H6.70491V3.08977Z" fill="currentColor"/>
<path id="Vector_2" d="M15.1574 18.0071C15.1539 16.9808 15.9761 16.1539 16.9977 16.1563C17.9921 16.1586 18.8119 16.9855 18.8131 17.9882C18.8131 19.0169 17.9886 19.8473 16.9729 19.8414C15.9761 19.8355 15.1622 19.0133 15.1574 18.0083V18.0071ZM16.9906 17.396C16.665 17.396 16.4067 17.6508 16.3972 17.9823C16.3866 18.3256 16.6674 18.6134 17.0012 18.6028C17.3209 18.5922 17.578 18.3197 17.5745 17.9941C17.571 17.6674 17.3067 17.3972 16.9906 17.396Z" fill="currentColor"/>
</g>
</svg>
