<svg width="172" height="172" viewBox="0 0 172 172" fill="none" xmlns="http://www.w3.org/2000/svg">
<path d="M151.401 0H20.5988C9.2224 0 0 9.2224 0 20.5988V151.401C0 162.778 9.2224 172 20.5988 172H151.401C162.778 172 172 162.778 172 151.401V20.5988C172 9.2224 162.778 0 151.401 0Z" fill="url(#paint0_linear_26_1076)"/>
<mask id="mask0_26_1076" style="mask-type:luminance" maskUnits="userSpaceOnUse" x="0" y="0" width="172" height="172">
<path d="M151.401 0H20.5988C9.2224 0 0 9.2224 0 20.5988V151.401C0 162.778 9.2224 172 20.5988 172H151.401C162.778 172 172 162.778 172 151.401V20.5988C172 9.2224 162.778 0 151.401 0Z" fill="white"/>
</mask>
<g mask="url(#mask0_26_1076)">
<path opacity="0.04" d="M25.7487 168.91C97.9888 168.91 156.551 110.117 156.551 37.5928C156.551 -34.9318 97.9888 -93.7246 25.7487 -93.7246C-46.4915 -93.7246 -105.054 -34.9318 -105.054 37.5928C-105.054 110.117 -46.4915 168.91 25.7487 168.91Z" fill="white"/>
<path opacity="0.07" d="M25.7486 139.042C81.493 139.042 126.683 93.8521 126.683 38.1077C126.683 -17.6366 81.493 -62.8264 25.7486 -62.8264C-29.9958 -62.8264 -75.1855 -17.6366 -75.1855 38.1077C-75.1855 93.8521 -29.9958 139.042 25.7486 139.042Z" fill="white"/>
<path opacity="0.07" d="M25.2337 112.263C66.4731 112.263 99.9043 79.0629 99.9043 38.1078C99.9043 -2.84725 66.4731 -36.0479 25.2337 -36.0479C-16.0058 -36.0479 -49.437 -2.84725 -49.437 38.1078C-49.437 79.0629 -16.0058 112.263 25.2337 112.263Z" fill="white"/>
<path opacity="0.07" d="M25.7486 93.7245C56.4649 93.7245 81.3654 68.5935 81.3654 37.5928C81.3654 6.59209 56.4649 -18.5389 25.7486 -18.5389C-4.96769 -18.5389 -29.8682 6.59209 -29.8682 37.5928C-29.8682 68.5935 -4.96769 93.7245 25.7486 93.7245Z" fill="white"/>
</g>
<defs>
<linearGradient id="paint0_linear_26_1076" x1="172" y1="167.872" x2="6.536" y2="6.364" gradientUnits="userSpaceOnUse">
<stop stop-color="#0065BD"/>
<stop offset="1" stop-color="#14C0EC"/>
</linearGradient>
</defs>
</svg>
