<svg width="172" height="172" viewBox="0 0 172 172" fill="none" xmlns="http://www.w3.org/2000/svg">
<path d="M151.524 0H20.4762C9.1675 0 0 9.2224 0 20.5988V151.401C0 162.778 9.1675 172 20.4762 172H151.524C162.833 172 172 162.778 172 151.401V20.5988C172 9.2224 162.833 0 151.524 0Z" fill="url(#paint0_linear_26_1096)"/>
<mask id="mask0_26_1096" style="mask-type:luminance" maskUnits="userSpaceOnUse" x="0" y="0" width="172" height="172">
<path d="M151.524 0H20.4762C9.1675 0 0 9.2224 0 20.5988V151.401C0 162.778 9.1675 172 20.4762 172H151.524C162.833 172 172 162.778 172 151.401V20.5988C172 9.2224 162.833 0 151.524 0Z" fill="white"/>
</mask>
<g mask="url(#mask0_26_1096)">
<path opacity="0.04" d="M25.5952 168.91C97.9708 168.91 156.643 110.117 156.643 37.5928C156.643 -34.9318 97.9708 -93.7246 25.5952 -93.7246C-46.7804 -93.7246 -105.452 -34.9318 -105.452 37.5928C-105.452 110.117 -46.7804 168.91 25.5952 168.91Z" fill="white"/>
<path opacity="0.07" d="M25.0833 139.042C80.7786 139.042 125.929 93.8521 125.929 38.1077C125.929 -17.6367 80.7786 -62.8264 25.0833 -62.8264C-30.612 -62.8264 -75.762 -17.6367 -75.762 38.1077C-75.762 93.8521 -30.612 139.042 25.0833 139.042Z" fill="white"/>
<path opacity="0.07" d="M26.1071 112.263C67.101 112.263 100.333 79.0628 100.333 38.1077C100.333 -2.84734 67.101 -36.048 26.1071 -36.048C-14.8869 -36.048 -48.1191 -2.84734 -48.1191 38.1077C-48.1191 79.0628 -14.8869 112.263 26.1071 112.263Z" fill="white"/>
<path opacity="0.07" d="M26.1072 93.7245C56.9234 93.7245 81.9048 68.5935 81.9048 37.5928C81.9048 6.59209 56.9234 -18.5389 26.1072 -18.5389C-4.70899 -18.5389 -29.6904 6.59209 -29.6904 37.5928C-29.6904 68.5935 -4.70899 93.7245 26.1072 93.7245Z" fill="white"/>
</g>
<defs>
<linearGradient id="paint0_linear_26_1096" x1="172" y1="167.872" x2="6.536" y2="6.364" gradientUnits="userSpaceOnUse">
<stop stop-color="#BD0091"/>
<stop offset="1" stop-color="#FF0088"/>
</linearGradient>
</defs>
</svg>
