<svg width="173" height="172" viewBox="0 0 173 172" fill="none" xmlns="http://www.w3.org/2000/svg">
<path d="M151.861 0H20.5217C9.1879 0 0 9.2146 0 20.5814V151.273C0 162.64 9.1879 171.855 20.5217 171.855H151.861C163.195 171.855 172.383 162.64 172.383 151.273V20.5814C172.383 9.2146 163.195 0 151.861 0Z" fill="url(#paint0_linear_25_1056)"/>
<mask id="mask0_25_1056" style="mask-type:luminance" maskUnits="userSpaceOnUse" x="0" y="0" width="172" height="172">
<path d="M151.524 0H20.4762C9.1675 0 0 9.2224 0 20.5988V151.401C0 162.778 9.1675 172 20.4762 172H151.524C162.833 172 172 162.778 172 151.401V20.5988C172 9.2224 162.833 0 151.524 0Z" fill="white"/>
</mask>
<g mask="url(#mask0_25_1056)">
<path opacity="0.04" d="M25.5955 168.91C97.9711 168.91 156.643 110.117 156.643 37.5928C156.643 -34.9318 97.9711 -93.7246 25.5955 -93.7246C-46.7801 -93.7246 -105.452 -34.9318 -105.452 37.5928C-105.452 110.117 -46.7801 168.91 25.5955 168.91Z" fill="white"/>
<path opacity="0.07" d="M25.0835 139.042C80.7788 139.042 125.929 93.6216 125.929 37.5928C125.929 -18.436 80.7788 -63.8563 25.0835 -63.8563C-30.6118 -63.8563 -75.7617 -18.436 -75.7617 37.5928C-75.7617 93.6216 -30.6118 139.042 25.0835 139.042Z" fill="white"/>
<path opacity="0.07" d="M26.1071 113.293C67.101 113.293 100.333 79.8622 100.333 38.6227C100.333 -2.61672 67.101 -36.0479 26.1071 -36.0479C-14.8869 -36.0479 -48.1191 -2.61672 -48.1191 38.6227C-48.1191 79.8622 -14.8869 113.293 26.1071 113.293Z" fill="white"/>
<path opacity="0.07" d="M26.1072 93.7246C56.9234 93.7246 81.9048 68.8242 81.9048 38.1079C81.9048 7.39157 56.9234 -17.5089 26.1072 -17.5089C-4.70899 -17.5089 -29.6904 7.39157 -29.6904 38.1079C-29.6904 68.8242 -4.70899 93.7246 26.1072 93.7246Z" fill="white"/>
</g>
<defs>
<linearGradient id="paint0_linear_25_1056" x1="172.383" y1="167.73" x2="7.04695" y2="5.85161" gradientUnits="userSpaceOnUse">
<stop stop-color="#FF7700"/>
<stop offset="1" stop-color="#FFAA00"/>
</linearGradient>
</defs>
</svg>
